<?xml version="1.0" encoding="UTF-8" standalone="no"?>
<!DOCTYPE svg PUBLIC "-//W3C//DTD SVG 1.1//EN"
 "http://www.w3.org/Graphics/SVG/1.1/DTD/svg11.dtd">
<!-- Generated by graphviz version 14.1.3 (0)
 -->
<!-- Title: gate_smoke Pages: 1 -->
<svg width="228pt" height="344pt"
 viewBox="0.00 0.00 228.00 344.00" xmlns="http://www.w3.org/2000/svg" xmlns:xlink="http://www.w3.org/1999/xlink">
<g id="graph0" class="graph" transform="scale(1 1) rotate(0) translate(4 340.07)">
<title>gate_smoke</title>
<polygon fill="white" stroke="none" points="-4,4 -4,-340.07 224.42,-340.07 224.42,4 -4,4"/>
<!-- start -->
<g id="node1" class="node">
<title>start</title>
<polygon fill="none" stroke="black" points="110.21,-336.07 71.09,-318.07 110.21,-300.07 149.33,-318.07 110.21,-336.07"/>
<polyline fill="none" stroke="black" points="81.99,-323.09 81.99,-313.06"/>
<polyline fill="none" stroke="black" points="99.31,-305.09 121.11,-305.09"/>
<polyline fill="none" stroke="black" points="138.43,-313.06 138.43,-323.09"/>
<polyline fill="none" stroke="black" points="121.11,-331.06 99.31,-331.06"/>
<text xml:space="preserve" text-anchor="middle" x="110.21" y="-313.87" font-family="Times,serif" font-size="14.00">start</text>
</g>
<!-- gate -->
<g id="node2" class="node">
<title>gate</title>
<polygon fill="none" stroke="black" points="220.42,-216.04 165.32,-263.07 55.11,-263.07 0,-216.04 55.11,-169.01 165.32,-169.01 220.42,-216.04"/>
<text xml:space="preserve" text-anchor="middle" x="110.21" y="-228.24" font-family="Times,serif" font-size="14.00">Pick a path:</text>
<text xml:space="preserve" text-anchor="middle" x="110.21" y="-195.44" font-family="Times,serif" font-size="14.00">A: Proceed &#160;B: Abort</text>
</g>
<!-- start&#45;&gt;gate -->
<g id="edge1" class="edge">
<title>start&#45;&gt;gate</title>
<path fill="none" stroke="black" d="M110.21,-299.65C110.21,-292.57 110.21,-283.94 110.21,-274.96"/>
<polygon fill="black" stroke="black" points="113.71,-275 110.21,-265 106.71,-275 113.71,-275"/>
</g>
<!-- proceed -->
<g id="node3" class="node">
<title>proceed</title>
<ellipse fill="none" stroke="black" cx="66.21" cy="-98.21" rx="41.6" ry="18"/>
<text xml:space="preserve" text-anchor="middle" x="66.21" y="-94.01" font-family="Times,serif" font-size="14.00">proceed</text>
</g>
<!-- gate&#45;&gt;proceed -->
<g id="edge2" class="edge">
<title>gate&#45;&gt;proceed</title>
<path fill="none" stroke="black" d="M90.07,-168.72C87.65,-162.79 85.28,-156.78 83.12,-151.01 80.23,-143.27 77.34,-134.79 74.79,-126.96"/>
<polygon fill="black" stroke="black" points="78.17,-126.04 71.8,-117.58 71.5,-128.17 78.17,-126.04"/>
<text xml:space="preserve" text-anchor="middle" x="105.67" y="-138.41" font-family="Times,serif" font-size="14.00">Proceed</text>
</g>
<!-- abort -->
<g id="node4" class="node">
<title>abort</title>
<ellipse fill="none" stroke="black" cx="156.21" cy="-98.21" rx="30.88" ry="18"/>
<text xml:space="preserve" text-anchor="middle" x="156.21" y="-94.01" font-family="Times,serif" font-size="14.00">abort</text>
</g>
<!-- gate&#45;&gt;abort -->
<g id="edge3" class="edge">
<title>gate&#45;&gt;abort</title>
<path fill="none" stroke="black" d="M128.66,-168.6C134.28,-154.43 140.29,-139.31 145.25,-126.81"/>
<polygon fill="black" stroke="black" points="148.48,-128.17 148.92,-117.58 141.97,-125.58 148.48,-128.17"/>
<text xml:space="preserve" text-anchor="middle" x="157.66" y="-138.41" font-family="Times,serif" font-size="14.00">Abort</text>
</g>
<!-- done -->
<g id="node5" class="node">
<title>done</title>
<polygon fill="none" stroke="black" points="131.82,-43.21 88.6,-43.21 88.6,0 131.82,0 131.82,-43.21"/>
<polyline fill="none" stroke="black" points="100.6,-43.21 88.6,-31.21"/>
<polyline fill="none" stroke="black" points="88.6,-12 100.6,0"/>
<polyline fill="none" stroke="black" points="119.82,0 131.82,-12"/>
<polyline fill="none" stroke="black" points="131.82,-31.21 119.82,-43.21"/>
<text xml:space="preserve" text-anchor="middle" x="110.21" y="-17.41" font-family="Times,serif" font-size="14.00">done</text>
</g>
<!-- proceed&#45;&gt;done -->
<g id="edge4" class="edge">
<title>proceed&#45;&gt;done</title>
<path fill="none" stroke="black" d="M76.19,-80.28C80.92,-72.26 86.72,-62.43 92.18,-53.17"/>
<polygon fill="black" stroke="black" points="95.07,-55.16 97.14,-44.77 89.05,-51.6 95.07,-55.16"/>
</g>
<!-- abort&#45;&gt;done -->
<g id="edge5" class="edge">
<title>abort&#45;&gt;done</title>
<path fill="none" stroke="black" d="M146.23,-81.03C141.21,-72.88 134.95,-62.74 129.07,-53.2"/>
<polygon fill="black" stroke="black" points="132.17,-51.55 123.94,-44.88 126.21,-55.23 132.17,-51.55"/>
</g>
</g>
</svg>
