<?xml version="1.0" encoding="UTF-8" standalone="no"?>
<!DOCTYPE svg PUBLIC "-//W3C//DTD SVG 1.1//EN"
 "http://www.w3.org/Graphics/SVG/1.1/DTD/svg11.dtd">
<!-- Generated by graphviz version 14.1.3 (0)
 -->
<!-- Title: json_schema_stream Pages: 1 -->
<svg width="100pt" height="218pt"
 viewBox="0.00 0.00 100.00 218.00" xmlns="http://www.w3.org/2000/svg" xmlns:xlink="http://www.w3.org/1999/xlink">
<g id="graph0" class="graph" transform="scale(1 1) rotate(0) translate(4 214.05)">
<title>json_schema_stream</title>
<polygon fill="white" stroke="none" points="-4,4 -4,-214.05 96.47,-214.05 96.47,4 -4,4"/>
<!-- start -->
<g id="node1" class="node">
<title>start</title>
<polygon fill="none" stroke="black" points="46.23,-210.05 7.11,-192.05 46.23,-174.05 85.35,-192.05 46.23,-210.05"/>
<polyline fill="none" stroke="black" points="18.01,-197.06 18.01,-187.03"/>
<polyline fill="none" stroke="black" points="35.33,-179.06 57.13,-179.06"/>
<polyline fill="none" stroke="black" points="74.45,-187.03 74.45,-197.06"/>
<polyline fill="none" stroke="black" points="57.13,-205.03 35.33,-205.03"/>
<text xml:space="preserve" text-anchor="middle" x="46.23" y="-187.85" font-family="Times,serif" font-size="14.00">start</text>
</g>
<!-- list_files -->
<g id="node2" class="node">
<title>list_files</title>
<ellipse fill="none" stroke="black" cx="46.23" cy="-108.63" rx="46.23" ry="29.42"/>
<text xml:space="preserve" text-anchor="middle" x="46.23" y="-112.83" font-family="Times,serif" font-size="14.00">list_files</text>
<text xml:space="preserve" text-anchor="middle" x="46.23" y="-96.03" font-family="Times,serif" font-size="14.00">out: files</text>
</g>
<!-- start&#45;&gt;list_files -->
<g id="edge1" class="edge">
<title>start&#45;&gt;list_files</title>
<path fill="none" stroke="black" d="M46.23,-173.78C46.23,-166.72 46.23,-158.23 46.23,-149.78"/>
<polygon fill="black" stroke="black" points="49.73,-149.92 46.23,-139.92 42.73,-149.92 49.73,-149.92"/>
</g>
<!-- done -->
<g id="node3" class="node">
<title>done</title>
<polygon fill="none" stroke="black" points="67.84,-43.21 24.63,-43.21 24.63,0 67.84,0 67.84,-43.21"/>
<polyline fill="none" stroke="black" points="36.63,-43.21 24.63,-31.21"/>
<polyline fill="none" stroke="black" points="24.63,-12 36.63,0"/>
<polyline fill="none" stroke="black" points="55.84,0 67.84,-12"/>
<polyline fill="none" stroke="black" points="67.84,-31.21 55.84,-43.21"/>
<text xml:space="preserve" text-anchor="middle" x="46.23" y="-17.41" font-family="Times,serif" font-size="14.00">done</text>
</g>
<!-- list_files&#45;&gt;done -->
<g id="edge2" class="edge">
<title>list_files&#45;&gt;done</title>
<path fill="none" stroke="black" d="M46.23,-78.84C46.23,-71.17 46.23,-62.82 46.23,-54.96"/>
<polygon fill="black" stroke="black" points="49.73,-55.08 46.23,-45.08 42.73,-55.08 49.73,-55.08"/>
</g>
</g>
</svg>
