<?xml version="1.0" encoding="UTF-8" standalone="no"?>
<!DOCTYPE svg PUBLIC "-//W3C//DTD SVG 1.1//EN"
 "http://www.w3.org/Graphics/SVG/1.1/DTD/svg11.dtd">
<!-- Generated by graphviz version 14.1.3 (0)
 -->
<!-- Title: static_multi_node Pages: 1 -->
<svg width="89pt" height="408pt"
 viewBox="0.00 0.00 89.00 408.00" xmlns="http://www.w3.org/2000/svg" xmlns:xlink="http://www.w3.org/1999/xlink">
<g id="graph0" class="graph" transform="scale(1 1) rotate(0) translate(4 403.71)">
<title>static_multi_node</title>
<polygon fill="white" stroke="none" points="-4,4 -4,-403.71 84.91,-403.71 84.91,4 -4,4"/>
<!-- start -->
<g id="node1" class="node">
<title>start</title>
<polygon fill="none" stroke="black" points="40.46,-399.71 1.34,-381.71 40.46,-363.71 79.58,-381.71 40.46,-399.71"/>
<polyline fill="none" stroke="black" points="12.24,-386.72 12.24,-376.69"/>
<polyline fill="none" stroke="black" points="29.55,-368.72 51.36,-368.72"/>
<polyline fill="none" stroke="black" points="68.68,-376.69 68.68,-386.72"/>
<polyline fill="none" stroke="black" points="51.36,-394.69 29.55,-394.69"/>
<text xml:space="preserve" text-anchor="middle" x="40.46" y="-377.51" font-family="Times,serif" font-size="14.00">start</text>
</g>
<!-- node_a -->
<g id="node2" class="node">
<title>node_a</title>
<ellipse fill="none" stroke="black" cx="40.46" cy="-298.29" rx="39.9" ry="29.42"/>
<text xml:space="preserve" text-anchor="middle" x="40.46" y="-302.49" font-family="Times,serif" font-size="14.00">node_a</text>
<text xml:space="preserve" text-anchor="middle" x="40.46" y="-285.69" font-family="Times,serif" font-size="14.00">haiku</text>
</g>
<!-- start&#45;&gt;node_a -->
<g id="edge1" class="edge">
<title>start&#45;&gt;node_a</title>
<path fill="none" stroke="black" d="M40.46,-363.44C40.46,-356.38 40.46,-347.89 40.46,-339.44"/>
<polygon fill="black" stroke="black" points="43.96,-339.58 40.46,-329.58 36.96,-339.58 43.96,-339.58"/>
</g>
<!-- node_b -->
<g id="node3" class="node">
<title>node_b</title>
<ellipse fill="none" stroke="black" cx="40.46" cy="-203.46" rx="40.46" ry="29.42"/>
<text xml:space="preserve" text-anchor="middle" x="40.46" y="-207.66" font-family="Times,serif" font-size="14.00">node_b</text>
<text xml:space="preserve" text-anchor="middle" x="40.46" y="-190.86" font-family="Times,serif" font-size="14.00">haiku</text>
</g>
<!-- node_a&#45;&gt;node_b -->
<g id="edge2" class="edge">
<title>node_a&#45;&gt;node_b</title>
<path fill="none" stroke="black" d="M40.46,-268.43C40.46,-260.92 40.46,-252.69 40.46,-244.71"/>
<polygon fill="black" stroke="black" points="43.96,-244.82 40.46,-234.82 36.96,-244.82 43.96,-244.82"/>
</g>
<!-- node_c -->
<g id="node4" class="node">
<title>node_c</title>
<ellipse fill="none" stroke="black" cx="40.46" cy="-108.63" rx="39.9" ry="29.42"/>
<text xml:space="preserve" text-anchor="middle" x="40.46" y="-112.83" font-family="Times,serif" font-size="14.00">node_c</text>
<text xml:space="preserve" text-anchor="middle" x="40.46" y="-96.03" font-family="Times,serif" font-size="14.00">haiku</text>
</g>
<!-- node_b&#45;&gt;node_c -->
<g id="edge3" class="edge">
<title>node_b&#45;&gt;node_c</title>
<path fill="none" stroke="black" d="M40.46,-173.6C40.46,-166.09 40.46,-157.86 40.46,-149.88"/>
<polygon fill="black" stroke="black" points="43.96,-149.99 40.46,-139.99 36.96,-149.99 43.96,-149.99"/>
</g>
<!-- done -->
<g id="node5" class="node">
<title>done</title>
<polygon fill="none" stroke="black" points="62.06,-43.21 18.85,-43.21 18.85,0 62.06,0 62.06,-43.21"/>
<polyline fill="none" stroke="black" points="30.85,-43.21 18.85,-31.21"/>
<polyline fill="none" stroke="black" points="18.85,-12 30.85,0"/>
<polyline fill="none" stroke="black" points="50.06,0 62.06,-12"/>
<polyline fill="none" stroke="black" points="62.06,-31.21 50.06,-43.21"/>
<text xml:space="preserve" text-anchor="middle" x="40.46" y="-17.41" font-family="Times,serif" font-size="14.00">done</text>
</g>
<!-- node_c&#45;&gt;done -->
<g id="edge4" class="edge">
<title>node_c&#45;&gt;done</title>
<path fill="none" stroke="black" d="M40.46,-78.84C40.46,-71.17 40.46,-62.82 40.46,-54.96"/>
<polygon fill="black" stroke="black" points="43.96,-55.08 40.46,-45.08 36.96,-55.08 43.96,-55.08"/>
</g>
</g>
</svg>
