<?xml version="1.0" encoding="UTF-8" standalone="no"?>
<!DOCTYPE svg PUBLIC "-//W3C//DTD SVG 1.1//EN"
 "http://www.w3.org/Graphics/SVG/1.1/DTD/svg11.dtd">
<!-- Generated by graphviz version 14.1.3 (0)
 -->
<!-- Title: static_multi_node Pages: 1 -->
<svg width="87pt" height="339pt"
 viewBox="0.00 0.00 87.00 339.00" xmlns="http://www.w3.org/2000/svg" xmlns:xlink="http://www.w3.org/1999/xlink">
<g id="graph0" class="graph" transform="scale(1 1) rotate(0) translate(4 335.21)">
<title>static_multi_node</title>
<polygon fill="white" stroke="none" points="-4,4 -4,-335.21 82.93,-335.21 82.93,4 -4,4"/>
<!-- start -->
<g id="node1" class="node">
<title>start</title>
<polygon fill="none" stroke="black" points="39.47,-331.21 0.34,-313.21 39.47,-295.21 78.59,-313.21 39.47,-331.21"/>
<polyline fill="none" stroke="black" points="11.25,-318.23 11.25,-308.2"/>
<polyline fill="none" stroke="black" points="28.56,-300.23 50.37,-300.23"/>
<polyline fill="none" stroke="black" points="67.68,-308.2 67.68,-318.23"/>
<polyline fill="none" stroke="black" points="50.37,-326.2 28.56,-326.2"/>
<text xml:space="preserve" text-anchor="middle" x="39.47" y="-309.01" font-family="Times,serif" font-size="14.00">start</text>
</g>
<!-- node_a -->
<g id="node2" class="node">
<title>node_a</title>
<ellipse fill="none" stroke="black" cx="39.47" cy="-241.21" rx="38.92" ry="18"/>
<text xml:space="preserve" text-anchor="middle" x="39.47" y="-237.01" font-family="Times,serif" font-size="14.00">node_a</text>
</g>
<!-- start&#45;&gt;node_a -->
<g id="edge1" class="edge">
<title>start&#45;&gt;node_a</title>
<path fill="none" stroke="black" d="M39.47,-294.91C39.47,-287.62 39.47,-278.94 39.47,-270.75"/>
<polygon fill="black" stroke="black" points="42.97,-270.83 39.47,-260.83 35.97,-270.83 42.97,-270.83"/>
</g>
<!-- node_b -->
<g id="node3" class="node">
<title>node_b</title>
<ellipse fill="none" stroke="black" cx="39.47" cy="-169.21" rx="39.47" ry="18"/>
<text xml:space="preserve" text-anchor="middle" x="39.47" y="-165.01" font-family="Times,serif" font-size="14.00">node_b</text>
</g>
<!-- node_a&#45;&gt;node_b -->
<g id="edge2" class="edge">
<title>node_a&#45;&gt;node_b</title>
<path fill="none" stroke="black" d="M39.47,-222.91C39.47,-215.62 39.47,-206.94 39.47,-198.75"/>
<polygon fill="black" stroke="black" points="42.97,-198.83 39.47,-188.83 35.97,-198.83 42.97,-198.83"/>
</g>
<!-- node_c -->
<g id="node4" class="node">
<title>node_c</title>
<ellipse fill="none" stroke="black" cx="39.47" cy="-97.21" rx="38.92" ry="18"/>
<text xml:space="preserve" text-anchor="middle" x="39.47" y="-93.01" font-family="Times,serif" font-size="14.00">node_c</text>
</g>
<!-- node_b&#45;&gt;node_c -->
<g id="edge3" class="edge">
<title>node_b&#45;&gt;node_c</title>
<path fill="none" stroke="black" d="M39.47,-150.91C39.47,-143.62 39.47,-134.94 39.47,-126.75"/>
<polygon fill="black" stroke="black" points="42.97,-126.83 39.47,-116.83 35.97,-126.83 42.97,-126.83"/>
</g>
<!-- done -->
<g id="node5" class="node">
<title>done</title>
<polygon fill="none" stroke="black" points="61.07,-43.21 17.86,-43.21 17.86,0 61.07,0 61.07,-43.21"/>
<polyline fill="none" stroke="black" points="29.86,-43.21 17.86,-31.21"/>
<polyline fill="none" stroke="black" points="17.86,-12 29.86,0"/>
<polyline fill="none" stroke="black" points="49.07,0 61.07,-12"/>
<polyline fill="none" stroke="black" points="61.07,-31.21 49.07,-43.21"/>
<text xml:space="preserve" text-anchor="middle" x="39.47" y="-17.41" font-family="Times,serif" font-size="14.00">done</text>
</g>
<!-- node_c&#45;&gt;done -->
<g id="edge4" class="edge">
<title>node_c&#45;&gt;done</title>
<path fill="none" stroke="black" d="M39.47,-78.77C39.47,-71.6 39.47,-63.07 39.47,-54.84"/>
<polygon fill="black" stroke="black" points="42.97,-55.11 39.47,-45.11 35.97,-55.11 42.97,-55.11"/>
</g>
</g>
</svg>
