<?xml version="1.0" encoding="UTF-8" standalone="no"?>
<!DOCTYPE svg PUBLIC "-//W3C//DTD SVG 1.1//EN"
 "http://www.w3.org/Graphics/SVG/1.1/DTD/svg11.dtd">
<!-- Generated by graphviz version 14.1.3 (0)
 -->
<!-- Title: illumination_to_implementation Pages: 1 -->
<svg width="1490pt" height="1772pt"
 viewBox="0.00 0.00 1490.00 1772.00" xmlns="http://www.w3.org/2000/svg" xmlns:xlink="http://www.w3.org/1999/xlink">
<g id="graph0" class="graph" transform="scale(1 1) rotate(0) translate(4 1767.96)">
<title>illumination_to_implementation</title>
<polygon fill="white" stroke="none" points="-4,4 -4,-1767.96 1485.92,-1767.96 1485.92,4 -4,4"/>
<!-- start -->
<g id="node1" class="node">
<title>start</title>
<polygon fill="none" stroke="black" points="318.38,-1763.96 279.26,-1745.96 318.38,-1727.96 357.5,-1745.96 318.38,-1763.96"/>
<polyline fill="none" stroke="black" points="290.16,-1750.97 290.16,-1740.94"/>
<polyline fill="none" stroke="black" points="307.48,-1732.97 329.28,-1732.97"/>
<polyline fill="none" stroke="black" points="346.6,-1740.94 346.6,-1750.97"/>
<polyline fill="none" stroke="black" points="329.28,-1758.94 307.48,-1758.94"/>
<text xml:space="preserve" text-anchor="middle" x="318.38" y="-1741.76" font-family="Times,serif" font-size="14.00">start</text>
</g>
<!-- verifier -->
<g id="node2" class="node">
<title>verifier</title>
<ellipse fill="none" stroke="black" cx="318.38" cy="-1649.66" rx="318.38" ry="41.3"/>
<text xml:space="preserve" text-anchor="middle" x="318.38" y="-1662.26" font-family="Times,serif" font-size="14.00">verifier</text>
<text xml:space="preserve" text-anchor="middle" x="318.38" y="-1645.46" font-family="Times,serif" font-size="14.00">in: chat_summarizer.illumination_path, chat_summarizer.refinements, run_id</text>
<text xml:space="preserve" text-anchor="middle" x="318.38" y="-1628.66" font-family="Times,serif" font-size="14.00">out: preferred_label, illumination_path, summary, explanation</text>
</g>
<!-- start&#45;&gt;verifier -->
<g id="edge1" class="edge">
<title>start&#45;&gt;verifier</title>
<path fill="none" stroke="black" d="M318.38,-1727.66C318.38,-1720.48 318.38,-1711.74 318.38,-1702.75"/>
<polygon fill="black" stroke="black" points="321.88,-1702.85 318.38,-1692.85 314.88,-1702.85 321.88,-1702.85"/>
</g>
<!-- remove_gate -->
<g id="node3" class="node">
<title>remove_gate</title>
<polygon fill="none" stroke="black" points="1285.71,-1553.37 1250.55,-1571.37 1180.22,-1571.37 1145.05,-1553.37 1180.22,-1535.37 1250.55,-1535.37 1285.71,-1553.37"/>
<text xml:space="preserve" text-anchor="middle" x="1215.38" y="-1549.17" font-family="Times,serif" font-size="14.00">remove_gate</text>
</g>
<!-- verifier&#45;&gt;remove_gate -->
<g id="edge2" class="edge">
<title>verifier&#45;&gt;remove_gate</title>
<path fill="none" stroke="black" d="M563.19,-1622.93C760.13,-1602.22 1023.6,-1574.53 1146.65,-1561.59"/>
<polygon fill="black" stroke="black" points="1146.67,-1565.11 1156.25,-1560.58 1145.94,-1558.15 1146.67,-1565.11"/>
</g>
<!-- explainer -->
<g id="node5" class="node">
<title>explainer</title>
<ellipse fill="none" stroke="black" cx="653.38" cy="-1210.05" rx="404.68" ry="41.3"/>
<text xml:space="preserve" text-anchor="middle" x="653.38" y="-1222.65" font-family="Times,serif" font-size="14.00">explainer</text>
<text xml:space="preserve" text-anchor="middle" x="653.38" y="-1205.85" font-family="Times,serif" font-size="14.00">in: verifier.illumination_path, verifier.summary, verifier.explanation, chat_summarizer.refinements</text>
<text xml:space="preserve" text-anchor="middle" x="653.38" y="-1189.05" font-family="Times,serif" font-size="14.00">out: explainer_render</text>
</g>
<!-- verifier&#45;&gt;explainer -->
<g id="edge3" class="edge">
<title>verifier&#45;&gt;explainer</title>
<path fill="none" stroke="black" d="M223.01,-1609.81C204.33,-1595.89 190.38,-1577.69 190.38,-1554.37 190.38,-1554.37 190.38,-1554.37 190.38,-1344.44 190.38,-1324.64 193.84,-1316.42 209.38,-1304.14 240.45,-1279.61 315.58,-1259.99 395.37,-1245.21"/>
<polygon fill="black" stroke="black" points="395.96,-1248.66 405.17,-1243.42 394.7,-1241.77 395.96,-1248.66"/>
</g>
<!-- done -->
<g id="node18" class="node">
<title>done</title>
<polygon fill="none" stroke="black" points="1306.99,-43.21 1263.77,-43.21 1263.77,0 1306.99,0 1306.99,-43.21"/>
<polyline fill="none" stroke="black" points="1275.77,-43.21 1263.77,-31.21"/>
<polyline fill="none" stroke="black" points="1263.77,-12 1275.77,0"/>
<polyline fill="none" stroke="black" points="1294.99,0 1306.99,-12"/>
<polyline fill="none" stroke="black" points="1306.99,-31.21 1294.99,-43.21"/>
<text xml:space="preserve" text-anchor="middle" x="1285.38" y="-17.41" font-family="Times,serif" font-size="14.00">done</text>
</g>
<!-- verifier&#45;&gt;done -->
<g id="edge4" class="edge">
<title>verifier&#45;&gt;done</title>
<path fill="none" stroke="black" d="M156.7,-1613.87C135.19,-1600.14 120.38,-1581.02 120.38,-1554.37 120.38,-1554.37 120.38,-1554.37 120.38,-120.51 120.38,-47.18 207.9,-91.32 280.38,-80.21 658.6,-22.28 1124.96,-21.31 1252.07,-22.24"/>
<polygon fill="black" stroke="black" points="1251.75,-25.73 1261.78,-22.32 1251.81,-18.73 1251.75,-25.73"/>
</g>
<!-- consume_declined -->
<g id="node4" class="node">
<title>consume_declined</title>
<ellipse fill="none" stroke="black" cx="1341.38" cy="-1001.66" rx="82.9" ry="18"/>
<text xml:space="preserve" text-anchor="middle" x="1341.38" y="-997.46" font-family="Times,serif" font-size="14.00">consume_declined</text>
</g>
<!-- remove_gate&#45;&gt;consume_declined -->
<g id="edge5" class="edge">
<title>remove_gate&#45;&gt;consume_declined</title>
<path fill="none" stroke="black" d="M1258.04,-1538.92C1294.59,-1524.42 1341.38,-1497.42 1341.38,-1454.15 1341.38,-1454.15 1341.38,-1454.15 1341.38,-1112.75 1341.38,-1085.02 1341.38,-1053.35 1341.38,-1031.12"/>
<polygon fill="black" stroke="black" points="1344.88,-1031.34 1341.38,-1021.34 1337.88,-1031.34 1344.88,-1031.34"/>
<text xml:space="preserve" text-anchor="middle" x="1363.93" y="-1273.54" font-family="Times,serif" font-size="14.00">Archive</text>
</g>
<!-- chat_session -->
<g id="node7" class="node">
<title>chat_session</title>
<ellipse fill="none" stroke="black" cx="878.38" cy="-1453.15" rx="435.47" ry="29.42"/>
<text xml:space="preserve" text-anchor="middle" x="878.38" y="-1457.35" font-family="Times,serif" font-size="14.00">chat_session</text>
<text xml:space="preserve" text-anchor="middle" x="878.38" y="-1440.55" font-family="Times,serif" font-size="14.00">in: run_id, verifier.illumination_path, verifier.summary, verifier.explanation, chat_summarizer.refinements</text>
</g>
<!-- remove_gate&#45;&gt;chat_session -->
<g id="edge7" class="edge">
<title>remove_gate&#45;&gt;chat_session</title>
<path fill="none" stroke="black" d="M1171.32,-1539.53C1124.44,-1525.86 1048.51,-1503.73 985.7,-1485.43"/>
<polygon fill="black" stroke="black" points="986.97,-1482.15 976.39,-1482.71 985.01,-1488.87 986.97,-1482.15"/>
<text xml:space="preserve" text-anchor="middle" x="1100.2" y="-1504.77" font-family="Times,serif" font-size="14.00">Chat</text>
</g>
<!-- remove_gate&#45;&gt;done -->
<g id="edge6" class="edge">
<title>remove_gate&#45;&gt;done</title>
<path fill="none" stroke="black" d="M1283.61,-1551.84C1353.63,-1547.26 1452.38,-1527.75 1452.38,-1454.15 1452.38,-1454.15 1452.38,-1454.15 1452.38,-120.51 1452.38,-59.03 1367.12,-35.43 1318.44,-26.96"/>
<polygon fill="black" stroke="black" points="1319.14,-23.52 1308.71,-25.4 1318.03,-30.44 1319.14,-23.52"/>
<text xml:space="preserve" text-anchor="middle" x="1467.15" y="-781.57" font-family="Times,serif" font-size="14.00">Keep</text>
</g>
<!-- consume_declined&#45;&gt;done -->
<g id="edge15" class="edge">
<title>consume_declined&#45;&gt;done</title>
<path fill="none" stroke="black" d="M1358.12,-983.57C1377.38,-962.02 1406.38,-922.96 1406.38,-883.07 1406.38,-883.07 1406.38,-883.07 1406.38,-120.51 1406.38,-74.84 1353.64,-46.8 1317.8,-33.02"/>
<polygon fill="black" stroke="black" points="1319.31,-29.84 1308.72,-29.71 1316.92,-36.42 1319.31,-29.84"/>
</g>
<!-- approval_gate -->
<g id="node6" class="node">
<title>approval_gate</title>
<polygon fill="none" stroke="black" points="1094.28,-1113.75 1056.33,-1131.75 980.43,-1131.75 942.48,-1113.75 980.43,-1095.75 1056.33,-1095.75 1094.28,-1113.75"/>
<text xml:space="preserve" text-anchor="middle" x="1018.38" y="-1109.55" font-family="Times,serif" font-size="14.00">approval_gate</text>
</g>
<!-- explainer&#45;&gt;approval_gate -->
<g id="edge8" class="edge">
<title>explainer&#45;&gt;approval_gate</title>
<path fill="none" stroke="black" d="M800.26,-1171.1C855.73,-1156.78 915.75,-1141.27 958.77,-1130.15"/>
<polygon fill="black" stroke="black" points="959.61,-1133.55 968.41,-1127.66 957.86,-1126.78 959.61,-1133.55"/>
</g>
<!-- approval_gate&#45;&gt;consume_declined -->
<g id="edge9" class="edge">
<title>approval_gate&#45;&gt;consume_declined</title>
<path fill="none" stroke="black" d="M1066.27,-1100.09C1113.37,-1087.2 1187.08,-1065.92 1249.38,-1042.95 1265.33,-1037.07 1282.48,-1029.83 1297.6,-1023.11"/>
<polygon fill="black" stroke="black" points="1298.63,-1026.48 1306.32,-1019.19 1295.76,-1020.1 1298.63,-1026.48"/>
<text xml:space="preserve" text-anchor="middle" x="1214.85" y="-1065.15" font-family="Times,serif" font-size="14.00">Decline</text>
</g>
<!-- approval_gate&#45;&gt;chat_session -->
<g id="edge11" class="edge">
<title>approval_gate&#45;&gt;chat_session</title>
<path fill="none" stroke="black" d="M1038.28,-1131.9C1048.45,-1141.71 1060.17,-1154.81 1067.38,-1168.75 1069.72,-1173.28 1127.33,-1346.53 1097.38,-1386.73 1087.27,-1400.3 1059.6,-1412.09 1027.19,-1421.78"/>
<polygon fill="black" stroke="black" points="1026.61,-1418.3 1017.97,-1424.43 1028.55,-1425.03 1026.61,-1418.3"/>
<text xml:space="preserve" text-anchor="middle" x="1111.98" y="-1273.54" font-family="Times,serif" font-size="14.00">Chat</text>
</g>
<!-- design_writer -->
<g id="node9" class="node">
<title>design_writer</title>
<ellipse fill="none" stroke="black" cx="724.38" cy="-1001.66" rx="515.99" ry="41.3"/>
<text xml:space="preserve" text-anchor="middle" x="724.38" y="-1014.26" font-family="Times,serif" font-size="14.00">design_writer</text>
<text xml:space="preserve" text-anchor="middle" x="724.38" y="-997.46" font-family="Times,serif" font-size="14.00">in: verifier.illumination_path, verifier.summary, verifier.explanation, explainer.explainer_render, chat_summarizer.refinements</text>
<text xml:space="preserve" text-anchor="middle" x="724.38" y="-980.66" font-family="Times,serif" font-size="14.00">out: design_doc_path</text>
</g>
<!-- approval_gate&#45;&gt;design_writer -->
<g id="edge10" class="edge">
<title>approval_gate&#45;&gt;design_writer</title>
<path fill="none" stroke="black" d="M976.57,-1097.1C941.35,-1083.91 889.2,-1064.38 841.45,-1046.5"/>
<polygon fill="black" stroke="black" points="842.71,-1043.23 832.12,-1043 840.26,-1049.79 842.71,-1043.23"/>
<text xml:space="preserve" text-anchor="middle" x="947.78" y="-1065.15" font-family="Times,serif" font-size="14.00">Approve</text>
</g>
<!-- chat_summarizer -->
<g id="node8" class="node">
<title>chat_summarizer</title>
<ellipse fill="none" stroke="black" cx="653.38" cy="-1345.44" rx="435.47" ry="41.3"/>
<text xml:space="preserve" text-anchor="middle" x="653.38" y="-1358.04" font-family="Times,serif" font-size="14.00">chat_summarizer</text>
<text xml:space="preserve" text-anchor="middle" x="653.38" y="-1341.24" font-family="Times,serif" font-size="14.00">in: run_id, verifier.illumination_path, verifier.summary, verifier.explanation, chat_summarizer.refinements</text>
<text xml:space="preserve" text-anchor="middle" x="653.38" y="-1324.44" font-family="Times,serif" font-size="14.00">out: refinements, scope_changed, illumination_path</text>
</g>
<!-- chat_session&#45;&gt;chat_summarizer -->
<g id="edge12" class="edge">
<title>chat_session&#45;&gt;chat_summarizer</title>
<path fill="none" stroke="black" d="M817.49,-1423.54C796.29,-1413.58 771.97,-1402.16 748.66,-1391.2"/>
<polygon fill="black" stroke="black" points="750.3,-1388.11 739.76,-1387.02 747.32,-1394.44 750.3,-1388.11"/>
</g>
<!-- chat_summarizer&#45;&gt;verifier -->
<g id="edge13" class="edge">
<title>chat_summarizer&#45;&gt;verifier</title>
<path fill="none" stroke="black" d="M498.31,-1384.4C475.24,-1394.62 453,-1407.51 434.38,-1423.73 381.31,-1470 349.23,-1546.47 332.65,-1597.21"/>
<polygon fill="black" stroke="black" points="329.39,-1595.91 329.71,-1606.5 336.07,-1598.02 329.39,-1595.91"/>
</g>
<!-- chat_summarizer&#45;&gt;explainer -->
<g id="edge14" class="edge">
<title>chat_summarizer&#45;&gt;explainer</title>
<path fill="none" stroke="black" d="M653.38,-1303.69C653.38,-1290.76 653.38,-1276.29 653.38,-1262.7"/>
<polygon fill="black" stroke="black" points="656.88,-1263.06 653.38,-1253.06 649.88,-1263.06 656.88,-1263.06"/>
</g>
<!-- plan_writer -->
<g id="node10" class="node">
<title>plan_writer</title>
<ellipse fill="none" stroke="black" cx="724.38" cy="-882.07" rx="377.49" ry="41.3"/>
<text xml:space="preserve" text-anchor="middle" x="724.38" y="-894.67" font-family="Times,serif" font-size="14.00">plan_writer</text>
<text xml:space="preserve" text-anchor="middle" x="724.38" y="-877.87" font-family="Times,serif" font-size="14.00">in: verifier.illumination_path, design_writer.design_doc_path, chat_summarizer.refinements</text>
<text xml:space="preserve" text-anchor="middle" x="724.38" y="-861.07" font-family="Times,serif" font-size="14.00">out: plan_path</text>
</g>
<!-- design_writer&#45;&gt;plan_writer -->
<g id="edge16" class="edge">
<title>design_writer&#45;&gt;plan_writer</title>
<path fill="none" stroke="black" d="M724.38,-960.19C724.38,-952.06 724.38,-943.41 724.38,-934.96"/>
<polygon fill="black" stroke="black" points="727.88,-935.13 724.38,-925.13 720.88,-935.13 727.88,-935.13"/>
</g>
<!-- capture_pre_sha -->
<g id="node11" class="node">
<title>capture_pre_sha</title>
<ellipse fill="none" stroke="black" cx="724.38" cy="-785.77" rx="74.31" ry="18"/>
<text xml:space="preserve" text-anchor="middle" x="724.38" y="-781.57" font-family="Times,serif" font-size="14.00">capture_pre_sha</text>
</g>
<!-- plan_writer&#45;&gt;capture_pre_sha -->
<g id="edge17" class="edge">
<title>plan_writer&#45;&gt;capture_pre_sha</title>
<path fill="none" stroke="black" d="M724.38,-840.53C724.38,-832.05 724.38,-823.27 724.38,-815.33"/>
<polygon fill="black" stroke="black" points="727.88,-815.58 724.38,-805.58 720.88,-815.58 727.88,-815.58"/>
</g>
<!-- implement -->
<g id="node12" class="node">
<title>implement</title>
<ellipse fill="none" stroke="black" cx="724.38" cy="-689.48" rx="214.46" ry="41.3"/>
<text xml:space="preserve" text-anchor="middle" x="724.38" y="-702.08" font-family="Times,serif" font-size="14.00">implement</text>
<text xml:space="preserve" text-anchor="middle" x="724.38" y="-685.28" font-family="Times,serif" font-size="14.00">in: plan_writer.plan_path, capture_pre_sha.pre_sha</text>
<text xml:space="preserve" text-anchor="middle" x="724.38" y="-668.48" font-family="Times,serif" font-size="14.00">out: done, reason</text>
</g>
<!-- capture_pre_sha&#45;&gt;implement -->
<g id="edge18" class="edge">
<title>capture_pre_sha&#45;&gt;implement</title>
<path fill="none" stroke="black" d="M724.38,-767.48C724.38,-760.3 724.38,-751.56 724.38,-742.57"/>
<polygon fill="black" stroke="black" points="727.88,-742.67 724.38,-732.67 720.88,-742.67 727.88,-742.67"/>
</g>
<!-- implement&#45;&gt;implement -->
<g id="edge19" class="edge">
<title>implement&#45;&gt;implement</title>
<path fill="none" stroke="black" d="M935.33,-697.39C948.75,-695.53 956.84,-692.9 956.84,-689.48 956.84,-687.13 953.01,-685.15 946.26,-683.54"/>
<polygon fill="black" stroke="black" points="947.29,-680.17 936.82,-681.84 946.05,-687.06 947.29,-680.17"/>
</g>
<!-- review_gate -->
<g id="node13" class="node">
<title>review_gate</title>
<polygon fill="none" stroke="black" points="792.61,-577.38 759,-595.38 691.77,-595.38 658.15,-577.38 691.77,-559.38 759,-559.38 792.61,-577.38"/>
<text xml:space="preserve" text-anchor="middle" x="725.38" y="-573.18" font-family="Times,serif" font-size="14.00">review_gate</text>
</g>
<!-- implement&#45;&gt;review_gate -->
<g id="edge20" class="edge">
<title>implement&#45;&gt;review_gate</title>
<path fill="none" stroke="black" d="M722.27,-647.94C721.97,-636.74 721.9,-624.59 722.38,-613.38 722.47,-611.33 722.59,-609.2 722.72,-607.06"/>
<polygon fill="black" stroke="black" points="726.2,-607.56 723.48,-597.32 719.22,-607.02 726.2,-607.56"/>
</g>
<!-- review_gate&#45;&gt;implement -->
<g id="edge23" class="edge">
<title>review_gate&#45;&gt;implement</title>
<path fill="none" stroke="black" d="M725.23,-595.63C725.12,-606.74 724.99,-621.83 724.85,-636.62"/>
<polygon fill="black" stroke="black" points="721.36,-636.25 724.77,-646.28 728.36,-636.32 721.36,-636.25"/>
<text xml:space="preserve" text-anchor="middle" x="740.61" y="-617.58" font-family="Times,serif" font-size="14.00">Retry</text>
</g>
<!-- tmux_tester -->
<g id="node14" class="node">
<title>tmux_tester</title>
<ellipse fill="none" stroke="black" cx="999.38" cy="-465.29" rx="277.69" ry="41.3"/>
<text xml:space="preserve" text-anchor="middle" x="999.38" y="-477.89" font-family="Times,serif" font-size="14.00">tmux_tester</text>
<text xml:space="preserve" text-anchor="middle" x="999.38" y="-461.09" font-family="Times,serif" font-size="14.00">in: project, run_id, plan_writer.plan_path, capture_pre_sha.pre_sha</text>
<text xml:space="preserve" text-anchor="middle" x="999.38" y="-444.29" font-family="Times,serif" font-size="14.00">out: test_result, test_summary, test_render, plan_files_touched</text>
</g>
<!-- review_gate&#45;&gt;tmux_tester -->
<g id="edge22" class="edge">
<title>review_gate&#45;&gt;tmux_tester</title>
<path fill="none" stroke="black" d="M763.19,-561.19C796.83,-547.67 847.67,-527.25 893.58,-508.8"/>
<polygon fill="black" stroke="black" points="894.83,-512.07 902.8,-505.1 892.22,-505.58 894.83,-512.07"/>
<text xml:space="preserve" text-anchor="middle" x="870.89" y="-528.78" font-family="Times,serif" font-size="14.00">Tmux</text>
</g>
<!-- memory_writer -->
<g id="node16" class="node">
<title>memory_writer</title>
<ellipse fill="none" stroke="black" cx="763.38" cy="-241.1" rx="615.05" ry="41.3"/>
<text xml:space="preserve" text-anchor="middle" x="763.38" y="-253.7" font-family="Times,serif" font-size="14.00">memory_writer</text>
<text xml:space="preserve" text-anchor="middle" x="763.38" y="-236.9" font-family="Times,serif" font-size="14.00">in: run_id, project, plan_writer.plan_path, design_writer.design_doc_path, verifier.illumination_path, tmux_tester.test_result, tmux_tester.test_summary</text>
<text xml:space="preserve" text-anchor="middle" x="763.38" y="-220.1" font-family="Times,serif" font-size="14.00">out: memory_path</text>
</g>
<!-- review_gate&#45;&gt;memory_writer -->
<g id="edge21" class="edge">
<title>review_gate&#45;&gt;memory_writer</title>
<path fill="none" stroke="black" d="M721.22,-559.01C718.09,-544.96 714.05,-524.63 712.38,-506.58 709.01,-470.03 707.38,-460.36 712.38,-423.99 718.58,-378.94 733.02,-329.33 744.96,-293.32"/>
<polygon fill="black" stroke="black" points="748.22,-294.63 748.09,-284.03 741.58,-292.39 748.22,-294.63"/>
<text xml:space="preserve" text-anchor="middle" x="742.65" y="-393.39" font-family="Times,serif" font-size="14.00">Approve</text>
</g>
<!-- tmux_confirm_gate -->
<g id="node15" class="node">
<title>tmux_confirm_gate</title>
<polygon fill="none" stroke="black" points="1054.07,-353.19 1003.73,-371.19 903.04,-371.19 852.69,-353.19 903.04,-335.19 1003.73,-335.19 1054.07,-353.19"/>
<text xml:space="preserve" text-anchor="middle" x="953.38" y="-348.99" font-family="Times,serif" font-size="14.00">tmux_confirm_gate</text>
</g>
<!-- tmux_tester&#45;&gt;tmux_confirm_gate -->
<g id="edge24" class="edge">
<title>tmux_tester&#45;&gt;tmux_confirm_gate</title>
<path fill="none" stroke="black" d="M996,-423.6C993.94,-412.05 990.65,-399.76 985.38,-389.19 983.85,-386.12 981.97,-383.13 979.9,-380.26"/>
<polygon fill="black" stroke="black" points="982.81,-378.29 973.76,-372.78 977.4,-382.73 982.81,-378.29"/>
</g>
<!-- tmux_confirm_gate&#45;&gt;tmux_tester -->
<g id="edge26" class="edge">
<title>tmux_confirm_gate&#45;&gt;tmux_tester</title>
<path fill="none" stroke="black" d="M948.95,-371.49C947.13,-381.81 946.26,-394.99 950.28,-405.99 951.33,-408.87 952.59,-411.7 954.01,-414.47"/>
<polygon fill="black" stroke="black" points="950.91,-416.1 959.03,-422.91 956.93,-412.52 950.91,-416.1"/>
<text xml:space="preserve" text-anchor="middle" x="965.83" y="-393.39" font-family="Times,serif" font-size="14.00">Retry</text>
</g>
<!-- tmux_confirm_gate&#45;&gt;memory_writer -->
<g id="edge25" class="edge">
<title>tmux_confirm_gate&#45;&gt;memory_writer</title>
<path fill="none" stroke="black" d="M923.28,-334.75C901.65,-322.22 871.44,-304.71 843.09,-288.29"/>
<polygon fill="black" stroke="black" points="844.88,-285.28 834.47,-283.29 841.37,-291.33 844.88,-285.28"/>
<text xml:space="preserve" text-anchor="middle" x="914.87" y="-304.59" font-family="Times,serif" font-size="14.00">Commit</text>
</g>
<!-- memory_reflector -->
<g id="node17" class="node">
<title>memory_reflector</title>
<ellipse fill="none" stroke="black" cx="823.38" cy="-121.51" rx="534.48" ry="41.3"/>
<text xml:space="preserve" text-anchor="middle" x="823.38" y="-134.11" font-family="Times,serif" font-size="14.00">memory_reflector</text>
<text xml:space="preserve" text-anchor="middle" x="823.38" y="-117.31" font-family="Times,serif" font-size="14.00">in: run_id, project, memory_writer.memory_path, design_writer.design_doc_path, plan_writer.plan_path, verifier.illumination_path</text>
<text xml:space="preserve" text-anchor="middle" x="823.38" y="-100.51" font-family="Times,serif" font-size="14.00">out: illumination_path</text>
</g>
<!-- memory_writer&#45;&gt;memory_reflector -->
<g id="edge27" class="edge">
<title>memory_writer&#45;&gt;memory_reflector</title>
<path fill="none" stroke="black" d="M784.03,-199.63C788.37,-191.13 792.99,-182.06 797.49,-173.24"/>
<polygon fill="black" stroke="black" points="800.58,-174.9 802.01,-164.4 794.34,-171.72 800.58,-174.9"/>
</g>
<!-- memory_reflector&#45;&gt;done -->
<g id="edge28" class="edge">
<title>memory_reflector&#45;&gt;done</title>
<path fill="none" stroke="black" d="M1003.99,-82.24C1096.5,-62.63 1200.34,-40.63 1252.18,-29.64"/>
<polygon fill="black" stroke="black" points="1252.78,-33.09 1261.84,-27.6 1251.33,-26.24 1252.78,-33.09"/>
</g>
</g>
</svg>
