<?xml version="1.0" encoding="UTF-8" standalone="no"?>
<!DOCTYPE svg PUBLIC "-//W3C//DTD SVG 1.1//EN"
 "http://www.w3.org/Graphics/SVG/1.1/DTD/svg11.dtd">
<!-- Generated by graphviz version 14.1.3 (0)
 -->
<!-- Title: illumination_to_implementation Pages: 1 -->
<svg width="1126pt" height="1451pt"
 viewBox="0.00 0.00 1126.00 1451.00" xmlns="http://www.w3.org/2000/svg" xmlns:xlink="http://www.w3.org/1999/xlink">
<g id="graph0" class="graph" transform="scale(1 1) rotate(0) translate(4 1446.82)">
<title>illumination_to_implementation</title>
<polygon fill="white" stroke="none" points="-4,4 -4,-1446.82 1122,-1446.82 1122,4 -4,4"/>
<!-- start -->
<g id="node1" class="node">
<title>start</title>
<polygon fill="none" stroke="black" points="605,-1442.82 565.88,-1424.82 605,-1406.82 644.12,-1424.82 605,-1442.82"/>
<polyline fill="none" stroke="black" points="576.78,-1429.83 576.78,-1419.8"/>
<polyline fill="none" stroke="black" points="594.1,-1411.83 615.9,-1411.83"/>
<polyline fill="none" stroke="black" points="633.22,-1419.8 633.22,-1429.83"/>
<polyline fill="none" stroke="black" points="615.9,-1437.8 594.1,-1437.8"/>
<text xml:space="preserve" text-anchor="middle" x="605" y="-1420.62" font-family="Times,serif" font-size="14.00">start</text>
</g>
<!-- verifier -->
<g id="node2" class="node">
<title>verifier</title>
<ellipse fill="none" stroke="black" cx="605" cy="-1351.82" rx="39.45" ry="18"/>
<text xml:space="preserve" text-anchor="middle" x="605" y="-1347.62" font-family="Times,serif" font-size="14.00">verifier</text>
</g>
<!-- start&#45;&gt;verifier -->
<g id="edge1" class="edge">
<title>start&#45;&gt;verifier</title>
<path fill="none" stroke="black" d="M605,-1406.63C605,-1399.04 605,-1389.92 605,-1381.36"/>
<polygon fill="black" stroke="black" points="608.5,-1381.36 605,-1371.36 601.5,-1381.36 608.5,-1381.36"/>
</g>
<!-- remove_gate -->
<g id="node3" class="node">
<title>remove_gate</title>
<polygon fill="none" stroke="black" points="607.85,-1082.07 462.92,-1182.67 173.08,-1182.67 28.15,-1082.07 173.08,-981.48 462.92,-981.48 607.85,-1082.07"/>
<text xml:space="preserve" text-anchor="middle" x="318" y="-1127.07" font-family="Times,serif" font-size="14.00">Verifier recommends archiving.</text>
<text xml:space="preserve" text-anchor="middle" x="318" y="-1094.27" font-family="Times,serif" font-size="14.00">$illumination_path</text>
<text xml:space="preserve" text-anchor="middle" x="318" y="-1061.47" font-family="Times,serif" font-size="14.00">Reason: $explanation</text>
<text xml:space="preserve" text-anchor="middle" x="318" y="-1028.67" font-family="Times,serif" font-size="14.00">Choose: Archive (agree), Keep (override), or Chat (discuss).</text>
</g>
<!-- verifier&#45;&gt;remove_gate -->
<g id="edge2" class="edge">
<title>verifier&#45;&gt;remove_gate</title>
<path fill="none" stroke="black" d="M588.33,-1335.27C558.22,-1307.18 492.4,-1245.77 433.25,-1190.59"/>
<polygon fill="black" stroke="black" points="435.76,-1188.14 426.06,-1183.88 430.98,-1193.26 435.76,-1188.14"/>
</g>
<!-- explainer -->
<g id="node6" class="node">
<title>explainer</title>
<ellipse fill="none" stroke="black" cx="757" cy="-1278.82" rx="46.96" ry="18"/>
<text xml:space="preserve" text-anchor="middle" x="757" y="-1274.62" font-family="Times,serif" font-size="14.00">explainer</text>
</g>
<!-- verifier&#45;&gt;explainer -->
<g id="edge3" class="edge">
<title>verifier&#45;&gt;explainer</title>
<path fill="none" stroke="black" d="M631.82,-1338.29C655.68,-1327.15 690.85,-1310.72 717.84,-1298.11"/>
<polygon fill="black" stroke="black" points="719.17,-1301.35 726.74,-1293.95 716.2,-1295.01 719.17,-1301.35"/>
</g>
<!-- done -->
<g id="node17" class="node">
<title>done</title>
<polygon fill="none" stroke="black" points="356.61,-43.21 313.39,-43.21 313.39,0 356.61,0 356.61,-43.21"/>
<polyline fill="none" stroke="black" points="325.39,-43.21 313.39,-31.21"/>
<polyline fill="none" stroke="black" points="313.39,-12 325.39,0"/>
<polyline fill="none" stroke="black" points="344.61,0 356.61,-12"/>
<polyline fill="none" stroke="black" points="356.61,-31.21 344.61,-43.21"/>
<text xml:space="preserve" text-anchor="middle" x="335" y="-17.41" font-family="Times,serif" font-size="14.00">done</text>
</g>
<!-- verifier&#45;&gt;done -->
<g id="edge4" class="edge">
<title>verifier&#45;&gt;done</title>
<path fill="none" stroke="black" d="M565.3,-1350.34C430.71,-1348.21 0,-1336.93 0,-1279.82 0,-1279.82 0,-1279.82 0,-97.21 0,-35.82 217.1,-24.92 301.76,-23.01"/>
<polygon fill="black" stroke="black" points="301.58,-26.51 311.51,-22.82 301.44,-19.51 301.58,-26.51"/>
</g>
<!-- mark_archived -->
<g id="node4" class="node">
<title>mark_archived</title>
<ellipse fill="none" stroke="black" cx="410" cy="-869.53" rx="68.95" ry="18"/>
<text xml:space="preserve" text-anchor="middle" x="410" y="-865.33" font-family="Times,serif" font-size="14.00">mark_archived</text>
</g>
<!-- remove_gate&#45;&gt;mark_archived -->
<g id="edge5" class="edge">
<title>remove_gate&#45;&gt;mark_archived</title>
<path fill="none" stroke="black" d="M361.71,-981.04C374.99,-950.65 388.53,-919.66 397.88,-898.27"/>
<polygon fill="black" stroke="black" points="401.09,-899.67 401.88,-889.11 394.67,-896.87 401.09,-899.67"/>
<text xml:space="preserve" text-anchor="middle" x="417.12" y="-909.73" font-family="Times,serif" font-size="14.00">Archive</text>
</g>
<!-- chat_session -->
<g id="node8" class="node">
<title>chat_session</title>
<ellipse fill="none" stroke="black" cx="858" cy="-869.53" rx="59.85" ry="18"/>
<text xml:space="preserve" text-anchor="middle" x="858" y="-865.33" font-family="Times,serif" font-size="14.00">chat_session</text>
</g>
<!-- remove_gate&#45;&gt;chat_session -->
<g id="edge7" class="edge">
<title>remove_gate&#45;&gt;chat_session</title>
<path fill="none" stroke="black" d="M479.9,-992.98C523.33,-972.68 571.02,-953.27 617,-940.33 688.01,-920.35 712.79,-947.87 782,-922.33 799.53,-915.86 816.91,-904.49 830.62,-894.04"/>
<polygon fill="black" stroke="black" points="832.62,-896.92 838.29,-887.97 828.27,-891.43 832.62,-896.92"/>
<text xml:space="preserve" text-anchor="middle" x="826.46" y="-909.73" font-family="Times,serif" font-size="14.00">Chat</text>
</g>
<!-- remove_gate&#45;&gt;done -->
<g id="edge6" class="edge">
<title>remove_gate&#45;&gt;done</title>
<path fill="none" stroke="black" d="M314.66,-981.22C313.74,-946.22 313,-906.64 313,-870.53 313,-870.53 313,-870.53 313,-97.21 313,-82.8 316.82,-67.44 321.28,-54.42"/>
<polygon fill="black" stroke="black" points="324.55,-55.68 324.76,-45.09 317.99,-53.24 324.55,-55.68"/>
<text xml:space="preserve" text-anchor="middle" x="327.77" y="-601.93" font-family="Times,serif" font-size="14.00">Keep</text>
</g>
<!-- mark_archived&#45;&gt;done -->
<g id="edge14" class="edge">
<title>mark_archived&#45;&gt;done</title>
<path fill="none" stroke="black" d="M388.55,-852.01C374.23,-838.97 358,-819.38 358,-797.53 358,-797.53 358,-797.53 358,-97.21 358,-82.6 353.92,-67.06 349.2,-53.97"/>
<polygon fill="black" stroke="black" points="352.61,-53.08 345.71,-45.04 346.09,-55.62 352.61,-53.08"/>
</g>
<!-- mark_dispatched -->
<g id="node5" class="node">
<title>mark_dispatched</title>
<ellipse fill="none" stroke="black" cx="716" cy="-723.53" rx="77" ry="18"/>
<text xml:space="preserve" text-anchor="middle" x="716" y="-719.33" font-family="Times,serif" font-size="14.00">mark_dispatched</text>
</g>
<!-- implement -->
<g id="node12" class="node">
<title>implement</title>
<ellipse fill="none" stroke="black" cx="716" cy="-650.53" rx="52.34" ry="18"/>
<text xml:space="preserve" text-anchor="middle" x="716" y="-646.33" font-family="Times,serif" font-size="14.00">implement</text>
</g>
<!-- mark_dispatched&#45;&gt;implement -->
<g id="edge17" class="edge">
<title>mark_dispatched&#45;&gt;implement</title>
<path fill="none" stroke="black" d="M716,-705.34C716,-697.76 716,-688.63 716,-680.07"/>
<polygon fill="black" stroke="black" points="719.5,-680.07 716,-670.07 712.5,-680.07 719.5,-680.07"/>
</g>
<!-- approval_gate -->
<g id="node7" class="node">
<title>approval_gate</title>
<polygon fill="none" stroke="black" points="1089.78,-1082.07 973.89,-1223.82 742.11,-1223.82 626.22,-1082.07 742.11,-940.33 973.89,-940.33 1089.78,-1082.07"/>
<text xml:space="preserve" text-anchor="middle" x="858" y="-1152.27" font-family="Times,serif" font-size="14.00">Proceed with plan?</text>
<text xml:space="preserve" text-anchor="middle" x="858" y="-1119.47" font-family="Times,serif" font-size="14.00">Illumination: $illumination_path</text>
<text xml:space="preserve" text-anchor="middle" x="858" y="-1102.67" font-family="Times,serif" font-size="14.00">Summary: $summary</text>
<text xml:space="preserve" text-anchor="middle" x="858" y="-1085.87" font-family="Times,serif" font-size="14.00">Verifier: $explanation</text>
<text xml:space="preserve" text-anchor="middle" x="858" y="-1053.07" font-family="Times,serif" font-size="14.00">$explainer_render</text>
<text xml:space="preserve" text-anchor="middle" x="858" y="-1020.27" font-family="Times,serif" font-size="14.00">Refinements (cumulative; empty on first entry):</text>
<text xml:space="preserve" text-anchor="middle" x="858" y="-1003.47" font-family="Times,serif" font-size="14.00">$refinements</text>
</g>
<!-- explainer&#45;&gt;approval_gate -->
<g id="edge8" class="edge">
<title>explainer&#45;&gt;approval_gate</title>
<path fill="none" stroke="black" d="M765.79,-1260.88C769.57,-1253.58 774.38,-1244.31 779.8,-1233.85"/>
<polygon fill="black" stroke="black" points="782.75,-1235.77 784.25,-1225.28 776.54,-1232.55 782.75,-1235.77"/>
</g>
<!-- approval_gate&#45;&gt;mark_archived -->
<g id="edge9" class="edge">
<title>approval_gate&#45;&gt;mark_archived</title>
<path fill="none" stroke="black" d="M704.9,-985.45C676.23,-969.34 646.11,-953.57 617,-940.33 567.88,-917.99 509.42,-898.92 467.17,-886.39"/>
<polygon fill="black" stroke="black" points="468.28,-883.07 457.7,-883.61 466.31,-889.78 468.28,-883.07"/>
<text xml:space="preserve" text-anchor="middle" x="594.63" y="-909.73" font-family="Times,serif" font-size="14.00">Decline</text>
</g>
<!-- approval_gate&#45;&gt;chat_session -->
<g id="edge11" class="edge">
<title>approval_gate&#45;&gt;chat_session</title>
<path fill="none" stroke="black" d="M858,-940.05C858,-924.76 858,-910.61 858,-899.12"/>
<polygon fill="black" stroke="black" points="861.5,-899.29 858,-889.29 854.5,-899.29 861.5,-899.29"/>
<text xml:space="preserve" text-anchor="middle" x="871.22" y="-909.73" font-family="Times,serif" font-size="14.00">Chat</text>
</g>
<!-- design_writer -->
<g id="node10" class="node">
<title>design_writer</title>
<ellipse fill="none" stroke="black" cx="716" cy="-869.53" rx="64.14" ry="18"/>
<text xml:space="preserve" text-anchor="middle" x="716" y="-865.33" font-family="Times,serif" font-size="14.00">design_writer</text>
</g>
<!-- approval_gate&#45;&gt;design_writer -->
<g id="edge10" class="edge">
<title>approval_gate&#45;&gt;design_writer</title>
<path fill="none" stroke="black" d="M743.07,-939.93C739.53,-934.08 736.16,-928.2 733.01,-922.33 729.11,-915.04 725.89,-906.7 723.34,-898.87"/>
<polygon fill="black" stroke="black" points="726.72,-897.98 720.51,-889.39 720.01,-899.98 726.72,-897.98"/>
<text xml:space="preserve" text-anchor="middle" x="757.51" y="-909.73" font-family="Times,serif" font-size="14.00">Approve</text>
</g>
<!-- chat_summarizer -->
<g id="node9" class="node">
<title>chat_summarizer</title>
<ellipse fill="none" stroke="black" cx="992" cy="-796.53" rx="77.53" ry="18"/>
<text xml:space="preserve" text-anchor="middle" x="992" y="-792.33" font-family="Times,serif" font-size="14.00">chat_summarizer</text>
</g>
<!-- chat_session&#45;&gt;chat_summarizer -->
<g id="edge12" class="edge">
<title>chat_session&#45;&gt;chat_summarizer</title>
<path fill="none" stroke="black" d="M886.75,-853.3C905.78,-843.22 931.01,-829.85 951.99,-818.73"/>
<polygon fill="black" stroke="black" points="953.37,-821.96 960.57,-814.18 950.09,-815.77 953.37,-821.96"/>
</g>
<!-- chat_summarizer&#45;&gt;verifier -->
<g id="edge13" class="edge">
<title>chat_summarizer&#45;&gt;verifier</title>
<path fill="none" stroke="black" d="M1052.42,-808.15C1084.75,-817.68 1118,-835.51 1118,-868.53 1118,-1279.82 1118,-1279.82 1118,-1279.82 1118,-1326.18 784.94,-1343.93 655.55,-1349.07"/>
<polygon fill="black" stroke="black" points="655.77,-1345.56 645.91,-1349.44 656.04,-1352.55 655.77,-1345.56"/>
</g>
<!-- plan_writer -->
<g id="node11" class="node">
<title>plan_writer</title>
<ellipse fill="none" stroke="black" cx="716" cy="-796.53" rx="55.55" ry="18"/>
<text xml:space="preserve" text-anchor="middle" x="716" y="-792.33" font-family="Times,serif" font-size="14.00">plan_writer</text>
</g>
<!-- design_writer&#45;&gt;plan_writer -->
<g id="edge15" class="edge">
<title>design_writer&#45;&gt;plan_writer</title>
<path fill="none" stroke="black" d="M716,-851.34C716,-843.76 716,-834.63 716,-826.07"/>
<polygon fill="black" stroke="black" points="719.5,-826.07 716,-816.07 712.5,-826.07 719.5,-826.07"/>
</g>
<!-- plan_writer&#45;&gt;mark_dispatched -->
<g id="edge16" class="edge">
<title>plan_writer&#45;&gt;mark_dispatched</title>
<path fill="none" stroke="black" d="M716,-778.34C716,-770.76 716,-761.63 716,-753.07"/>
<polygon fill="black" stroke="black" points="719.5,-753.07 716,-743.07 712.5,-753.07 719.5,-753.07"/>
</g>
<!-- implement&#45;&gt;implement -->
<g id="edge18" class="edge">
<title>implement&#45;&gt;implement</title>
<path fill="none" stroke="black" d="M764.98,-657.28C777.2,-656.81 786.34,-654.56 786.34,-650.53 786.34,-647.89 782.4,-646.01 776.24,-644.9"/>
<polygon fill="black" stroke="black" points="776.78,-641.43 766.48,-643.93 776.09,-648.4 776.78,-641.43"/>
</g>
<!-- review_gate -->
<g id="node13" class="node">
<title>review_gate</title>
<polygon fill="none" stroke="black" points="807.58,-518.98 746.29,-579.73 623.71,-579.73 562.42,-518.98 623.71,-458.24 746.29,-458.24 807.58,-518.98"/>
<text xml:space="preserve" text-anchor="middle" x="685" y="-539.58" font-family="Times,serif" font-size="14.00">Review implementation</text>
<text xml:space="preserve" text-anchor="middle" x="685" y="-506.78" font-family="Times,serif" font-size="14.00">Project: $project</text>
<text xml:space="preserve" text-anchor="middle" x="685" y="-489.98" font-family="Times,serif" font-size="14.00">Plan: $plan_path</text>
</g>
<!-- implement&#45;&gt;review_gate -->
<g id="edge19" class="edge">
<title>implement&#45;&gt;review_gate</title>
<path fill="none" stroke="black" d="M705.82,-632.58C702.87,-627 699.93,-620.66 698,-614.53 695.66,-607.12 693.74,-599.25 692.17,-591.34"/>
<polygon fill="black" stroke="black" points="695.64,-590.89 690.43,-581.67 688.75,-592.13 695.64,-590.89"/>
</g>
<!-- review_gate&#45;&gt;implement -->
<g id="edge22" class="edge">
<title>review_gate&#45;&gt;implement</title>
<path fill="none" stroke="black" d="M699.39,-580.13C702.82,-594.44 706.32,-609.06 709.21,-621.16"/>
<polygon fill="black" stroke="black" points="705.8,-621.95 711.53,-630.86 712.61,-620.32 705.8,-621.95"/>
<text xml:space="preserve" text-anchor="middle" x="722.39" y="-601.93" font-family="Times,serif" font-size="14.00">Retry</text>
</g>
<!-- tmux_tester -->
<g id="node14" class="node">
<title>tmux_tester</title>
<ellipse fill="none" stroke="black" cx="698" cy="-387.44" rx="56.63" ry="18"/>
<text xml:space="preserve" text-anchor="middle" x="698" y="-383.24" font-family="Times,serif" font-size="14.00">tmux_tester</text>
</g>
<!-- review_gate&#45;&gt;tmux_tester -->
<g id="edge21" class="edge">
<title>review_gate&#45;&gt;tmux_tester</title>
<path fill="none" stroke="black" d="M691.04,-457.76C692.48,-443.49 693.94,-428.92 695.15,-416.85"/>
<polygon fill="black" stroke="black" points="698.6,-417.51 696.12,-407.21 691.63,-416.81 698.6,-417.51"/>
<text xml:space="preserve" text-anchor="middle" x="710.88" y="-427.64" font-family="Times,serif" font-size="14.00">Tmux</text>
</g>
<!-- memory_writer -->
<g id="node16" class="node">
<title>memory_writer</title>
<ellipse fill="none" stroke="black" cx="457" cy="-98.21" rx="71.1" ry="18"/>
<text xml:space="preserve" text-anchor="middle" x="457" y="-94.01" font-family="Times,serif" font-size="14.00">memory_writer</text>
</g>
<!-- review_gate&#45;&gt;memory_writer -->
<g id="edge20" class="edge">
<title>review_gate&#45;&gt;memory_writer</title>
<path fill="none" stroke="black" d="M611.9,-469.58C564.08,-433.55 505.08,-379.79 475,-316.64 445.44,-254.57 448.75,-171.21 453.18,-127.96"/>
<polygon fill="black" stroke="black" points="456.64,-128.46 454.29,-118.13 449.69,-127.68 456.64,-128.46"/>
<text xml:space="preserve" text-anchor="middle" x="518.88" y="-338.84" font-family="Times,serif" font-size="14.00">Approve</text>
</g>
<!-- tmux_confirm_gate -->
<g id="node15" class="node">
<title>tmux_confirm_gate</title>
<polygon fill="none" stroke="black" points="978.02,-242.83 854.51,-316.64 607.49,-316.64 483.98,-242.83 607.49,-169.01 854.51,-169.01 978.02,-242.83"/>
<text xml:space="preserve" text-anchor="middle" x="731" y="-271.43" font-family="Times,serif" font-size="14.00">Tests ran in tmux window test&#45;$run_id.</text>
<text xml:space="preserve" text-anchor="middle" x="731" y="-238.63" font-family="Times,serif" font-size="14.00">$test_render</text>
<text xml:space="preserve" text-anchor="middle" x="731" y="-205.83" font-family="Times,serif" font-size="14.00">Commit the fixes or give tmux&#45;tester another pass?</text>
</g>
<!-- tmux_tester&#45;&gt;tmux_confirm_gate -->
<g id="edge23" class="edge">
<title>tmux_tester&#45;&gt;tmux_confirm_gate</title>
<path fill="none" stroke="black" d="M701.98,-369.23C704.49,-358.4 707.93,-343.52 711.57,-327.8"/>
<polygon fill="black" stroke="black" points="714.93,-328.82 713.77,-318.29 708.11,-327.24 714.93,-328.82"/>
</g>
<!-- tmux_confirm_gate&#45;&gt;tmux_tester -->
<g id="edge25" class="edge">
<title>tmux_confirm_gate&#45;&gt;tmux_tester</title>
<path fill="none" stroke="black" d="M717.1,-316.99C714.6,-328.56 711.86,-340.36 709,-351.44 708.44,-353.61 707.82,-355.85 707.18,-358.09"/>
<polygon fill="black" stroke="black" points="703.83,-357.06 704.28,-367.64 710.53,-359.09 703.83,-357.06"/>
<text xml:space="preserve" text-anchor="middle" x="728.14" y="-338.84" font-family="Times,serif" font-size="14.00">Retry</text>
</g>
<!-- tmux_confirm_gate&#45;&gt;memory_writer -->
<g id="edge24" class="edge">
<title>tmux_confirm_gate&#45;&gt;memory_writer</title>
<path fill="none" stroke="black" d="M599.62,-173.44C562.35,-154.05 524.53,-134.36 497.21,-120.14"/>
<polygon fill="black" stroke="black" points="499.1,-117.18 488.62,-115.67 495.87,-123.39 499.1,-117.18"/>
<text xml:space="preserve" text-anchor="middle" x="576.4" y="-138.41" font-family="Times,serif" font-size="14.00">Commit</text>
</g>
<!-- memory_writer&#45;&gt;done -->
<g id="edge26" class="edge">
<title>memory_writer&#45;&gt;done</title>
<path fill="none" stroke="black" d="M430.53,-81.03C411.79,-69.57 386.57,-54.14 366.75,-42.02"/>
<polygon fill="black" stroke="black" points="368.59,-39.04 358.23,-36.81 364.93,-45.01 368.59,-39.04"/>
</g>
</g>
</svg>
