<?xml version="1.0" encoding="UTF-8" standalone="no"?>
<!DOCTYPE svg PUBLIC "-//W3C//DTD SVG 1.1//EN"
 "http://www.w3.org/Graphics/SVG/1.1/DTD/svg11.dtd">
<!-- Generated by graphviz version 14.1.3 (0)
 -->
<!-- Title: illumination_to_implementation Pages: 1 -->
<svg width="1134pt" height="1524pt"
 viewBox="0.00 0.00 1134.00 1524.00" xmlns="http://www.w3.org/2000/svg" xmlns:xlink="http://www.w3.org/1999/xlink">
<g id="graph0" class="graph" transform="scale(1 1) rotate(0) translate(4 1519.82)">
<title>illumination_to_implementation</title>
<polygon fill="white" stroke="none" points="-4,4 -4,-1519.82 1129.53,-1519.82 1129.53,4 -4,4"/>
<!-- start -->
<g id="node1" class="node">
<title>start</title>
<polygon fill="none" stroke="black" points="605,-1515.82 565.88,-1497.82 605,-1479.82 644.12,-1497.82 605,-1515.82"/>
<polyline fill="none" stroke="black" points="576.78,-1502.83 576.78,-1492.8"/>
<polyline fill="none" stroke="black" points="594.1,-1484.83 615.9,-1484.83"/>
<polyline fill="none" stroke="black" points="633.22,-1492.8 633.22,-1502.83"/>
<polyline fill="none" stroke="black" points="615.9,-1510.8 594.1,-1510.8"/>
<text xml:space="preserve" text-anchor="middle" x="605" y="-1493.62" font-family="Times,serif" font-size="14.00">start</text>
</g>
<!-- verifier -->
<g id="node2" class="node">
<title>verifier</title>
<ellipse fill="none" stroke="black" cx="605" cy="-1424.82" rx="39.45" ry="18"/>
<text xml:space="preserve" text-anchor="middle" x="605" y="-1420.62" font-family="Times,serif" font-size="14.00">verifier</text>
</g>
<!-- start&#45;&gt;verifier -->
<g id="edge1" class="edge">
<title>start&#45;&gt;verifier</title>
<path fill="none" stroke="black" d="M605,-1479.63C605,-1472.04 605,-1462.92 605,-1454.36"/>
<polygon fill="black" stroke="black" points="608.5,-1454.36 605,-1444.36 601.5,-1454.36 608.5,-1454.36"/>
</g>
<!-- remove_gate -->
<g id="node3" class="node">
<title>remove_gate</title>
<polygon fill="none" stroke="black" points="607.85,-1155.07 462.92,-1255.67 173.08,-1255.67 28.15,-1155.07 173.08,-1054.48 462.92,-1054.48 607.85,-1155.07"/>
<text xml:space="preserve" text-anchor="middle" x="318" y="-1200.07" font-family="Times,serif" font-size="14.00">Verifier recommends archiving.</text>
<text xml:space="preserve" text-anchor="middle" x="318" y="-1167.27" font-family="Times,serif" font-size="14.00">$illumination_path</text>
<text xml:space="preserve" text-anchor="middle" x="318" y="-1134.47" font-family="Times,serif" font-size="14.00">Reason: $explanation</text>
<text xml:space="preserve" text-anchor="middle" x="318" y="-1101.67" font-family="Times,serif" font-size="14.00">Choose: Archive (agree), Keep (override), or Chat (discuss).</text>
</g>
<!-- verifier&#45;&gt;remove_gate -->
<g id="edge2" class="edge">
<title>verifier&#45;&gt;remove_gate</title>
<path fill="none" stroke="black" d="M588.33,-1408.27C558.22,-1380.18 492.4,-1318.77 433.25,-1263.59"/>
<polygon fill="black" stroke="black" points="435.76,-1261.14 426.06,-1256.88 430.98,-1266.26 435.76,-1261.14"/>
</g>
<!-- explainer -->
<g id="node6" class="node">
<title>explainer</title>
<ellipse fill="none" stroke="black" cx="757" cy="-1351.82" rx="46.96" ry="18"/>
<text xml:space="preserve" text-anchor="middle" x="757" y="-1347.62" font-family="Times,serif" font-size="14.00">explainer</text>
</g>
<!-- verifier&#45;&gt;explainer -->
<g id="edge3" class="edge">
<title>verifier&#45;&gt;explainer</title>
<path fill="none" stroke="black" d="M631.82,-1411.29C655.68,-1400.15 690.85,-1383.72 717.84,-1371.11"/>
<polygon fill="black" stroke="black" points="719.17,-1374.35 726.74,-1366.95 716.2,-1368.01 719.17,-1374.35"/>
</g>
<!-- done -->
<g id="node18" class="node">
<title>done</title>
<polygon fill="none" stroke="black" points="367.61,-43.21 324.39,-43.21 324.39,0 367.61,0 367.61,-43.21"/>
<polyline fill="none" stroke="black" points="336.39,-43.21 324.39,-31.21"/>
<polyline fill="none" stroke="black" points="324.39,-12 336.39,0"/>
<polyline fill="none" stroke="black" points="355.61,0 367.61,-12"/>
<polyline fill="none" stroke="black" points="367.61,-31.21 355.61,-43.21"/>
<text xml:space="preserve" text-anchor="middle" x="346" y="-17.41" font-family="Times,serif" font-size="14.00">done</text>
</g>
<!-- verifier&#45;&gt;done -->
<g id="edge4" class="edge">
<title>verifier&#45;&gt;done</title>
<path fill="none" stroke="black" d="M565.3,-1423.34C430.71,-1421.21 0,-1409.93 0,-1352.82 0,-1352.82 0,-1352.82 0,-97.21 0,-33.61 226.25,-24.09 312.84,-22.77"/>
<polygon fill="black" stroke="black" points="312.62,-26.27 322.58,-22.65 312.54,-19.27 312.62,-26.27"/>
</g>
<!-- mark_archived -->
<g id="node4" class="node">
<title>mark_archived</title>
<ellipse fill="none" stroke="black" cx="414" cy="-942.53" rx="68.95" ry="18"/>
<text xml:space="preserve" text-anchor="middle" x="414" y="-938.33" font-family="Times,serif" font-size="14.00">mark_archived</text>
</g>
<!-- remove_gate&#45;&gt;mark_archived -->
<g id="edge5" class="edge">
<title>remove_gate&#45;&gt;mark_archived</title>
<path fill="none" stroke="black" d="M363.61,-1054.04C377.53,-1023.51 391.73,-992.38 401.49,-970.97"/>
<polygon fill="black" stroke="black" points="404.57,-972.65 405.53,-962.1 398.2,-969.74 404.57,-972.65"/>
<text xml:space="preserve" text-anchor="middle" x="420.45" y="-982.73" font-family="Times,serif" font-size="14.00">Archive</text>
</g>
<!-- chat_session -->
<g id="node8" class="node">
<title>chat_session</title>
<ellipse fill="none" stroke="black" cx="864" cy="-942.53" rx="59.85" ry="18"/>
<text xml:space="preserve" text-anchor="middle" x="864" y="-938.33" font-family="Times,serif" font-size="14.00">chat_session</text>
</g>
<!-- remove_gate&#45;&gt;chat_session -->
<g id="edge7" class="edge">
<title>remove_gate&#45;&gt;chat_session</title>
<path fill="none" stroke="black" d="M479.88,-1065.92C523.31,-1045.62 571.01,-1026.22 617,-1013.33 689.31,-993.06 714.29,-1020.63 785,-995.33 803.24,-988.81 821.47,-977.27 835.81,-966.74"/>
<polygon fill="black" stroke="black" points="837.59,-969.79 843.43,-960.95 833.35,-964.22 837.59,-969.79"/>
<text xml:space="preserve" text-anchor="middle" x="830.55" y="-982.73" font-family="Times,serif" font-size="14.00">Chat</text>
</g>
<!-- remove_gate&#45;&gt;done -->
<g id="edge6" class="edge">
<title>remove_gate&#45;&gt;done</title>
<path fill="none" stroke="black" d="M317.33,-1054.21C317.15,-1019.2 317,-979.63 317,-943.53 317,-943.53 317,-943.53 317,-97.21 317,-82.34 322.07,-66.86 327.97,-53.89"/>
<polygon fill="black" stroke="black" points="331.07,-55.51 332.36,-45 324.79,-52.42 331.07,-55.51"/>
<text xml:space="preserve" text-anchor="middle" x="331.77" y="-587.78" font-family="Times,serif" font-size="14.00">Keep</text>
</g>
<!-- mark_archived&#45;&gt;done -->
<g id="edge14" class="edge">
<title>mark_archived&#45;&gt;done</title>
<path fill="none" stroke="black" d="M398.36,-924.56C387.51,-910.99 375,-890.92 375,-870.53 375,-870.53 375,-870.53 375,-97.21 375,-82.34 369.93,-66.86 364.03,-53.89"/>
<polygon fill="black" stroke="black" points="367.21,-52.42 359.64,-45 360.93,-55.51 367.21,-52.42"/>
</g>
<!-- mark_dispatched -->
<g id="node5" class="node">
<title>mark_dispatched</title>
<ellipse fill="none" stroke="black" cx="722" cy="-796.53" rx="77" ry="18"/>
<text xml:space="preserve" text-anchor="middle" x="722" y="-792.33" font-family="Times,serif" font-size="14.00">mark_dispatched</text>
</g>
<!-- implement -->
<g id="node12" class="node">
<title>implement</title>
<ellipse fill="none" stroke="black" cx="722" cy="-723.53" rx="52.34" ry="18"/>
<text xml:space="preserve" text-anchor="middle" x="722" y="-719.33" font-family="Times,serif" font-size="14.00">implement</text>
</g>
<!-- mark_dispatched&#45;&gt;implement -->
<g id="edge17" class="edge">
<title>mark_dispatched&#45;&gt;implement</title>
<path fill="none" stroke="black" d="M722,-778.34C722,-770.76 722,-761.63 722,-753.07"/>
<polygon fill="black" stroke="black" points="725.5,-753.07 722,-743.07 718.5,-753.07 725.5,-753.07"/>
</g>
<!-- approval_gate -->
<g id="node7" class="node">
<title>approval_gate</title>
<polygon fill="none" stroke="black" points="1089.78,-1155.07 973.89,-1296.82 742.11,-1296.82 626.22,-1155.07 742.11,-1013.33 973.89,-1013.33 1089.78,-1155.07"/>
<text xml:space="preserve" text-anchor="middle" x="858" y="-1225.27" font-family="Times,serif" font-size="14.00">Proceed with plan?</text>
<text xml:space="preserve" text-anchor="middle" x="858" y="-1192.47" font-family="Times,serif" font-size="14.00">Illumination: $illumination_path</text>
<text xml:space="preserve" text-anchor="middle" x="858" y="-1175.67" font-family="Times,serif" font-size="14.00">Summary: $summary</text>
<text xml:space="preserve" text-anchor="middle" x="858" y="-1158.87" font-family="Times,serif" font-size="14.00">Verifier: $explanation</text>
<text xml:space="preserve" text-anchor="middle" x="858" y="-1126.07" font-family="Times,serif" font-size="14.00">$explainer_render</text>
<text xml:space="preserve" text-anchor="middle" x="858" y="-1093.27" font-family="Times,serif" font-size="14.00">Refinements (cumulative; empty on first entry):</text>
<text xml:space="preserve" text-anchor="middle" x="858" y="-1076.47" font-family="Times,serif" font-size="14.00">$refinements</text>
</g>
<!-- explainer&#45;&gt;approval_gate -->
<g id="edge8" class="edge">
<title>explainer&#45;&gt;approval_gate</title>
<path fill="none" stroke="black" d="M765.79,-1333.88C769.57,-1326.58 774.38,-1317.31 779.8,-1306.85"/>
<polygon fill="black" stroke="black" points="782.75,-1308.77 784.25,-1298.28 776.54,-1305.55 782.75,-1308.77"/>
</g>
<!-- approval_gate&#45;&gt;mark_archived -->
<g id="edge9" class="edge">
<title>approval_gate&#45;&gt;mark_archived</title>
<path fill="none" stroke="black" d="M704.83,-1058.6C676.17,-1042.47 646.07,-1026.66 617,-1013.33 569.06,-991.35 512.08,-972.34 470.71,-959.73"/>
<polygon fill="black" stroke="black" points="471.78,-956.4 461.2,-956.87 469.76,-963.1 471.78,-956.4"/>
<text xml:space="preserve" text-anchor="middle" x="595.47" y="-982.73" font-family="Times,serif" font-size="14.00">Decline</text>
</g>
<!-- approval_gate&#45;&gt;chat_session -->
<g id="edge11" class="edge">
<title>approval_gate&#45;&gt;chat_session</title>
<path fill="none" stroke="black" d="M862.02,-1013.05C862.45,-997.76 862.86,-983.61 863.19,-972.12"/>
<polygon fill="black" stroke="black" points="866.68,-972.38 863.47,-962.29 859.68,-972.18 866.68,-972.38"/>
<text xml:space="preserve" text-anchor="middle" x="876.21" y="-982.73" font-family="Times,serif" font-size="14.00">Chat</text>
</g>
<!-- design_writer -->
<g id="node10" class="node">
<title>design_writer</title>
<ellipse fill="none" stroke="black" cx="722" cy="-942.53" rx="64.14" ry="18"/>
<text xml:space="preserve" text-anchor="middle" x="722" y="-938.33" font-family="Times,serif" font-size="14.00">design_writer</text>
</g>
<!-- approval_gate&#45;&gt;design_writer -->
<g id="edge10" class="edge">
<title>approval_gate&#45;&gt;design_writer</title>
<path fill="none" stroke="black" d="M745.46,-1013.04C742.11,-1007.16 738.94,-1001.25 736.01,-995.33 732.45,-988.12 729.69,-979.89 727.61,-972.13"/>
<polygon fill="black" stroke="black" points="731.01,-971.33 725.29,-962.41 724.2,-972.95 731.01,-971.33"/>
<text xml:space="preserve" text-anchor="middle" x="760.51" y="-982.73" font-family="Times,serif" font-size="14.00">Approve</text>
</g>
<!-- chat_summarizer -->
<g id="node9" class="node">
<title>chat_summarizer</title>
<ellipse fill="none" stroke="black" cx="1048" cy="-869.53" rx="77.53" ry="18"/>
<text xml:space="preserve" text-anchor="middle" x="1048" y="-865.33" font-family="Times,serif" font-size="14.00">chat_summarizer</text>
</g>
<!-- chat_session&#45;&gt;chat_summarizer -->
<g id="edge12" class="edge">
<title>chat_session&#45;&gt;chat_summarizer</title>
<path fill="none" stroke="black" d="M899.91,-927.67C928.07,-916.81 967.57,-901.57 998.69,-889.56"/>
<polygon fill="black" stroke="black" points="999.84,-892.87 1007.91,-886 997.32,-886.34 999.84,-892.87"/>
</g>
<!-- chat_summarizer&#45;&gt;verifier -->
<g id="edge13" class="edge">
<title>chat_summarizer&#45;&gt;verifier</title>
<path fill="none" stroke="black" d="M1078.5,-886.39C1097.36,-898.61 1118,-917.47 1118,-941.53 1118,-1352.82 1118,-1352.82 1118,-1352.82 1118,-1399.18 784.94,-1416.93 655.55,-1422.07"/>
<polygon fill="black" stroke="black" points="655.77,-1418.56 645.91,-1422.44 656.04,-1425.55 655.77,-1418.56"/>
</g>
<!-- plan_writer -->
<g id="node11" class="node">
<title>plan_writer</title>
<ellipse fill="none" stroke="black" cx="722" cy="-869.53" rx="55.55" ry="18"/>
<text xml:space="preserve" text-anchor="middle" x="722" y="-865.33" font-family="Times,serif" font-size="14.00">plan_writer</text>
</g>
<!-- design_writer&#45;&gt;plan_writer -->
<g id="edge15" class="edge">
<title>design_writer&#45;&gt;plan_writer</title>
<path fill="none" stroke="black" d="M722,-924.34C722,-916.76 722,-907.63 722,-899.07"/>
<polygon fill="black" stroke="black" points="725.5,-899.07 722,-889.07 718.5,-899.07 725.5,-899.07"/>
</g>
<!-- plan_writer&#45;&gt;mark_dispatched -->
<g id="edge16" class="edge">
<title>plan_writer&#45;&gt;mark_dispatched</title>
<path fill="none" stroke="black" d="M722,-851.34C722,-843.76 722,-834.63 722,-826.07"/>
<polygon fill="black" stroke="black" points="725.5,-826.07 722,-816.07 718.5,-826.07 725.5,-826.07"/>
</g>
<!-- implement&#45;&gt;implement -->
<g id="edge18" class="edge">
<title>implement&#45;&gt;implement</title>
<path fill="none" stroke="black" d="M770.98,-730.28C783.2,-729.81 792.34,-727.56 792.34,-723.53 792.34,-720.89 788.4,-719.01 782.24,-717.9"/>
<polygon fill="black" stroke="black" points="782.78,-714.43 772.48,-716.93 782.09,-721.4 782.78,-714.43"/>
</g>
<!-- review_gate -->
<g id="node13" class="node">
<title>review_gate</title>
<polygon fill="none" stroke="black" points="828.58,-591.98 767.29,-652.73 644.71,-652.73 583.42,-591.98 644.71,-531.24 767.29,-531.24 828.58,-591.98"/>
<text xml:space="preserve" text-anchor="middle" x="706" y="-612.58" font-family="Times,serif" font-size="14.00">Review implementation</text>
<text xml:space="preserve" text-anchor="middle" x="706" y="-579.78" font-family="Times,serif" font-size="14.00">Project: $project</text>
<text xml:space="preserve" text-anchor="middle" x="706" y="-562.98" font-family="Times,serif" font-size="14.00">Plan: $plan_path</text>
</g>
<!-- implement&#45;&gt;review_gate -->
<g id="edge19" class="edge">
<title>implement&#45;&gt;review_gate</title>
<path fill="none" stroke="black" d="M711.31,-705.72C708.34,-700.15 705.51,-693.77 704,-687.53 702.21,-680.13 701.13,-672.31 700.57,-664.47"/>
<polygon fill="black" stroke="black" points="704.07,-664.36 700.15,-654.52 697.07,-664.65 704.07,-664.36"/>
</g>
<!-- review_gate&#45;&gt;implement -->
<g id="edge22" class="edge">
<title>review_gate&#45;&gt;implement</title>
<path fill="none" stroke="black" d="M713.44,-653.18C715.19,-667.39 716.98,-681.89 718.47,-693.94"/>
<polygon fill="black" stroke="black" points="714.96,-694.06 719.66,-703.56 721.9,-693.2 714.96,-694.06"/>
<text xml:space="preserve" text-anchor="middle" x="732.82" y="-674.93" font-family="Times,serif" font-size="14.00">Retry</text>
</g>
<!-- tmux_tester -->
<g id="node14" class="node">
<title>tmux_tester</title>
<ellipse fill="none" stroke="black" cx="723" cy="-460.44" rx="56.63" ry="18"/>
<text xml:space="preserve" text-anchor="middle" x="723" y="-456.24" font-family="Times,serif" font-size="14.00">tmux_tester</text>
</g>
<!-- review_gate&#45;&gt;tmux_tester -->
<g id="edge21" class="edge">
<title>review_gate&#45;&gt;tmux_tester</title>
<path fill="none" stroke="black" d="M713.9,-530.76C715.78,-516.49 717.69,-501.92 719.27,-489.85"/>
<polygon fill="black" stroke="black" points="722.71,-490.58 720.54,-480.21 715.77,-489.67 722.71,-490.58"/>
<text xml:space="preserve" text-anchor="middle" x="734.7" y="-500.64" font-family="Times,serif" font-size="14.00">Tmux</text>
</g>
<!-- memory_writer -->
<g id="node16" class="node">
<title>memory_writer</title>
<ellipse fill="none" stroke="black" cx="484" cy="-171.21" rx="71.1" ry="18"/>
<text xml:space="preserve" text-anchor="middle" x="484" y="-167.01" font-family="Times,serif" font-size="14.00">memory_writer</text>
</g>
<!-- review_gate&#45;&gt;memory_writer -->
<g id="edge20" class="edge">
<title>review_gate&#45;&gt;memory_writer</title>
<path fill="none" stroke="black" d="M633.59,-541.97C586.68,-505.84 529.09,-452.22 500,-389.64 471.04,-327.34 475.1,-244.08 479.92,-200.9"/>
<polygon fill="black" stroke="black" points="483.38,-201.45 481.12,-191.09 476.43,-200.6 483.38,-201.45"/>
<text xml:space="preserve" text-anchor="middle" x="543.38" y="-411.84" font-family="Times,serif" font-size="14.00">Approve</text>
</g>
<!-- tmux_confirm_gate -->
<g id="node15" class="node">
<title>tmux_confirm_gate</title>
<polygon fill="none" stroke="black" points="1003.02,-315.83 879.51,-389.64 632.49,-389.64 508.98,-315.83 632.49,-242.01 879.51,-242.01 1003.02,-315.83"/>
<text xml:space="preserve" text-anchor="middle" x="756" y="-344.43" font-family="Times,serif" font-size="14.00">Tests ran in tmux window test&#45;$run_id.</text>
<text xml:space="preserve" text-anchor="middle" x="756" y="-311.63" font-family="Times,serif" font-size="14.00">$test_render</text>
<text xml:space="preserve" text-anchor="middle" x="756" y="-278.83" font-family="Times,serif" font-size="14.00">Commit the fixes or give tmux&#45;tester another pass?</text>
</g>
<!-- tmux_tester&#45;&gt;tmux_confirm_gate -->
<g id="edge23" class="edge">
<title>tmux_tester&#45;&gt;tmux_confirm_gate</title>
<path fill="none" stroke="black" d="M726.98,-442.23C729.49,-431.4 732.93,-416.52 736.57,-400.8"/>
<polygon fill="black" stroke="black" points="739.93,-401.82 738.77,-391.29 733.11,-400.24 739.93,-401.82"/>
</g>
<!-- tmux_confirm_gate&#45;&gt;tmux_tester -->
<g id="edge25" class="edge">
<title>tmux_confirm_gate&#45;&gt;tmux_tester</title>
<path fill="none" stroke="black" d="M742.1,-389.99C739.6,-401.56 736.86,-413.36 734,-424.44 733.44,-426.61 732.82,-428.85 732.18,-431.09"/>
<polygon fill="black" stroke="black" points="728.83,-430.06 729.28,-440.64 735.53,-432.09 728.83,-430.06"/>
<text xml:space="preserve" text-anchor="middle" x="753.14" y="-411.84" font-family="Times,serif" font-size="14.00">Retry</text>
</g>
<!-- tmux_confirm_gate&#45;&gt;memory_writer -->
<g id="edge24" class="edge">
<title>tmux_confirm_gate&#45;&gt;memory_writer</title>
<path fill="none" stroke="black" d="M625.18,-246.23C588.41,-226.96 551.14,-207.42 524.13,-193.26"/>
<polygon fill="black" stroke="black" points="525.77,-190.16 515.29,-188.62 522.52,-196.36 525.77,-190.16"/>
<text xml:space="preserve" text-anchor="middle" x="602.69" y="-211.41" font-family="Times,serif" font-size="14.00">Commit</text>
</g>
<!-- memory_reflector -->
<g id="node17" class="node">
<title>memory_reflector</title>
<ellipse fill="none" stroke="black" cx="484" cy="-98.21" rx="80.75" ry="18"/>
<text xml:space="preserve" text-anchor="middle" x="484" y="-94.01" font-family="Times,serif" font-size="14.00">memory_reflector</text>
</g>
<!-- memory_writer&#45;&gt;memory_reflector -->
<g id="edge26" class="edge">
<title>memory_writer&#45;&gt;memory_reflector</title>
<path fill="none" stroke="black" d="M484,-153.03C484,-145.44 484,-136.32 484,-127.75"/>
<polygon fill="black" stroke="black" points="487.5,-127.76 484,-117.76 480.5,-127.76 487.5,-127.76"/>
</g>
<!-- memory_reflector&#45;&gt;done -->
<g id="edge27" class="edge">
<title>memory_reflector&#45;&gt;done</title>
<path fill="none" stroke="black" d="M454.06,-81.03C431.51,-68.84 400.66,-52.16 377.7,-39.74"/>
<polygon fill="black" stroke="black" points="379.55,-36.77 369.09,-35.09 376.23,-42.93 379.55,-36.77"/>
</g>
</g>
</svg>
