<?xml version="1.0" encoding="UTF-8" standalone="no"?>
<!DOCTYPE svg PUBLIC "-//W3C//DTD SVG 1.1//EN"
 "http://www.w3.org/Graphics/SVG/1.1/DTD/svg11.dtd">
<!-- Generated by graphviz version 14.1.3 (0)
 -->
<!-- Title: conditional_smoke Pages: 1 -->
<svg width="214pt" height="362pt"
 viewBox="0.00 0.00 214.00 362.00" xmlns="http://www.w3.org/2000/svg" xmlns:xlink="http://www.w3.org/1999/xlink">
<g id="graph0" class="graph" transform="scale(1 1) rotate(0) translate(4 358.05)">
<title>conditional_smoke</title>
<polygon fill="white" stroke="none" points="-4,4 -4,-358.05 210.48,-358.05 210.48,4 -4,4"/>
<!-- start -->
<g id="node1" class="node">
<title>start</title>
<polygon fill="none" stroke="black" points="105.12,-354.05 66,-336.05 105.12,-318.05 144.24,-336.05 105.12,-354.05"/>
<polyline fill="none" stroke="black" points="76.9,-341.06 76.9,-331.03"/>
<polyline fill="none" stroke="black" points="94.22,-323.06 116.02,-323.06"/>
<polyline fill="none" stroke="black" points="133.34,-331.03 133.34,-341.06"/>
<polyline fill="none" stroke="black" points="116.02,-349.03 94.22,-349.03"/>
<text xml:space="preserve" text-anchor="middle" x="105.12" y="-331.85" font-family="Times,serif" font-size="14.00">start</text>
</g>
<!-- classify -->
<g id="node2" class="node">
<title>classify</title>
<ellipse fill="none" stroke="black" cx="105.12" cy="-252.63" rx="51.18" ry="29.42"/>
<text xml:space="preserve" text-anchor="middle" x="105.12" y="-256.83" font-family="Times,serif" font-size="14.00">classify</text>
<text xml:space="preserve" text-anchor="middle" x="105.12" y="-240.03" font-family="Times,serif" font-size="14.00">out: result</text>
</g>
<!-- start&#45;&gt;classify -->
<g id="edge1" class="edge">
<title>start&#45;&gt;classify</title>
<path fill="none" stroke="black" d="M105.12,-317.78C105.12,-310.72 105.12,-302.23 105.12,-293.78"/>
<polygon fill="black" stroke="black" points="108.62,-293.92 105.12,-283.92 101.62,-293.92 108.62,-293.92"/>
</g>
<!-- router -->
<g id="node3" class="node">
<title>router</title>
<polygon fill="none" stroke="black" points="105.12,-187.21 56.91,-169.21 105.12,-151.21 153.34,-169.21 105.12,-187.21"/>
<text xml:space="preserve" text-anchor="middle" x="105.12" y="-165.01" font-family="Times,serif" font-size="14.00">router</text>
</g>
<!-- classify&#45;&gt;router -->
<g id="edge2" class="edge">
<title>classify&#45;&gt;router</title>
<path fill="none" stroke="black" d="M105.12,-223.15C105.12,-215.24 105.12,-206.64 105.12,-198.72"/>
<polygon fill="black" stroke="black" points="108.62,-198.91 105.12,-188.91 101.62,-198.91 108.62,-198.91"/>
</g>
<!-- pass_path -->
<g id="node4" class="node">
<title>pass_path</title>
<ellipse fill="none" stroke="black" cx="49.12" cy="-97.21" rx="49.12" ry="18"/>
<text xml:space="preserve" text-anchor="middle" x="49.12" y="-93.01" font-family="Times,serif" font-size="14.00">pass_path</text>
</g>
<!-- router&#45;&gt;pass_path -->
<g id="edge3" class="edge">
<title>router&#45;&gt;pass_path</title>
<path fill="none" stroke="black" d="M94.32,-154.72C87.29,-145.93 77.9,-134.19 69.5,-123.69"/>
<polygon fill="black" stroke="black" points="72.38,-121.68 63.4,-116.06 66.91,-126.06 72.38,-121.68"/>
</g>
<!-- fail_path -->
<g id="node5" class="node">
<title>fail_path</title>
<ellipse fill="none" stroke="black" cx="161.12" cy="-97.21" rx="45.36" ry="18"/>
<text xml:space="preserve" text-anchor="middle" x="161.12" y="-93.01" font-family="Times,serif" font-size="14.00">fail_path</text>
</g>
<!-- router&#45;&gt;fail_path -->
<g id="edge4" class="edge">
<title>router&#45;&gt;fail_path</title>
<path fill="none" stroke="black" d="M115.92,-154.72C122.95,-145.93 132.34,-134.19 140.74,-123.69"/>
<polygon fill="black" stroke="black" points="143.33,-126.06 146.84,-116.06 137.86,-121.68 143.33,-126.06"/>
</g>
<!-- done -->
<g id="node6" class="node">
<title>done</title>
<polygon fill="none" stroke="black" points="126.73,-43.21 83.52,-43.21 83.52,0 126.73,0 126.73,-43.21"/>
<polyline fill="none" stroke="black" points="95.52,-43.21 83.52,-31.21"/>
<polyline fill="none" stroke="black" points="83.52,-12 95.52,0"/>
<polyline fill="none" stroke="black" points="114.73,0 126.73,-12"/>
<polyline fill="none" stroke="black" points="126.73,-31.21 114.73,-43.21"/>
<text xml:space="preserve" text-anchor="middle" x="105.12" y="-17.41" font-family="Times,serif" font-size="14.00">done</text>
</g>
<!-- pass_path&#45;&gt;done -->
<g id="edge5" class="edge">
<title>pass_path&#45;&gt;done</title>
<path fill="none" stroke="black" d="M61.83,-79.51C67.93,-71.49 75.42,-61.64 82.45,-52.4"/>
<polygon fill="black" stroke="black" points="85.07,-54.74 88.34,-44.66 79.5,-50.5 85.07,-54.74"/>
</g>
<!-- fail_path&#45;&gt;done -->
<g id="edge6" class="edge">
<title>fail_path&#45;&gt;done</title>
<path fill="none" stroke="black" d="M148.41,-79.51C142.32,-71.49 134.82,-61.64 127.79,-52.4"/>
<polygon fill="black" stroke="black" points="130.74,-50.5 121.9,-44.66 125.17,-54.74 130.74,-50.5"/>
</g>
</g>
</svg>
