<?xml version="1.0" encoding="UTF-8" standalone="no"?>
<!DOCTYPE svg PUBLIC "-//W3C//DTD SVG 1.1//EN"
 "http://www.w3.org/Graphics/SVG/1.1/DTD/svg11.dtd">
<!-- Generated by graphviz version 14.1.3 (0)
 -->
<!-- Title: chat_only Pages: 1 -->
<svg width="86pt" height="195pt"
 viewBox="0.00 0.00 86.00 195.00" xmlns="http://www.w3.org/2000/svg" xmlns:xlink="http://www.w3.org/1999/xlink">
<g id="graph0" class="graph" transform="scale(1 1) rotate(0) translate(4 191.21)">
<title>chat_only</title>
<polygon fill="white" stroke="none" points="-4,4 -4,-191.21 82.24,-191.21 82.24,4 -4,4"/>
<!-- start -->
<g id="node1" class="node">
<title>start</title>
<polygon fill="none" stroke="black" points="39.12,-187.21 0,-169.21 39.12,-151.21 78.24,-169.21 39.12,-187.21"/>
<polyline fill="none" stroke="black" points="10.9,-174.23 10.9,-164.2"/>
<polyline fill="none" stroke="black" points="28.22,-156.23 50.02,-156.23"/>
<polyline fill="none" stroke="black" points="67.34,-164.2 67.34,-174.23"/>
<polyline fill="none" stroke="black" points="50.02,-182.2 28.22,-182.2"/>
<text xml:space="preserve" text-anchor="middle" x="39.12" y="-165.01" font-family="Times,serif" font-size="14.00">start</text>
</g>
<!-- chat -->
<g id="node2" class="node">
<title>chat</title>
<ellipse fill="none" stroke="black" cx="39.12" cy="-97.21" rx="27.12" ry="18"/>
<text xml:space="preserve" text-anchor="middle" x="39.12" y="-93.01" font-family="Times,serif" font-size="14.00">chat</text>
</g>
<!-- start&#45;&gt;chat -->
<g id="edge1" class="edge">
<title>start&#45;&gt;chat</title>
<path fill="none" stroke="black" d="M39.12,-150.91C39.12,-143.62 39.12,-134.94 39.12,-126.75"/>
<polygon fill="black" stroke="black" points="42.62,-126.83 39.12,-116.83 35.62,-126.83 42.62,-126.83"/>
</g>
<!-- done -->
<g id="node3" class="node">
<title>done</title>
<polygon fill="none" stroke="black" points="60.73,-43.21 17.51,-43.21 17.51,0 60.73,0 60.73,-43.21"/>
<polyline fill="none" stroke="black" points="29.51,-43.21 17.51,-31.21"/>
<polyline fill="none" stroke="black" points="17.51,-12 29.51,0"/>
<polyline fill="none" stroke="black" points="48.73,0 60.73,-12"/>
<polyline fill="none" stroke="black" points="60.73,-31.21 48.73,-43.21"/>
<text xml:space="preserve" text-anchor="middle" x="39.12" y="-17.41" font-family="Times,serif" font-size="14.00">done</text>
</g>
<!-- chat&#45;&gt;done -->
<g id="edge2" class="edge">
<title>chat&#45;&gt;done</title>
<path fill="none" stroke="black" d="M39.12,-78.77C39.12,-71.6 39.12,-63.07 39.12,-54.84"/>
<polygon fill="black" stroke="black" points="42.62,-55.11 39.12,-45.11 35.62,-55.11 42.62,-55.11"/>
</g>
</g>
</svg>
