<?xml version="1.0" encoding="UTF-8" standalone="no"?>
<!DOCTYPE svg PUBLIC "-//W3C//DTD SVG 1.1//EN"
 "http://www.w3.org/Graphics/SVG/1.1/DTD/svg11.dtd">
<!-- Generated by graphviz version 14.1.3 (0)
 -->
<!-- Title: parallel_illumination_to_implementation Pages: 1 -->
<svg width="1538pt" height="2067pt"
 viewBox="0.00 0.00 1538.00 2067.00" xmlns="http://www.w3.org/2000/svg" xmlns:xlink="http://www.w3.org/1999/xlink">
<g id="graph0" class="graph" transform="scale(1 1) rotate(0) translate(4 2062.74)">
<title>parallel_illumination_to_implementation</title>
<polygon fill="white" stroke="none" points="-4,4 -4,-2062.74 1533.92,-2062.74 1533.92,4 -4,4"/>
<!-- start -->
<g id="node1" class="node">
<title>start</title>
<polygon fill="none" stroke="black" points="318.38,-2058.74 279.26,-2040.74 318.38,-2022.74 357.5,-2040.74 318.38,-2058.74"/>
<polyline fill="none" stroke="black" points="290.16,-2045.76 290.16,-2035.73"/>
<polyline fill="none" stroke="black" points="307.48,-2027.76 329.28,-2027.76"/>
<polyline fill="none" stroke="black" points="346.6,-2035.73 346.6,-2045.76"/>
<polyline fill="none" stroke="black" points="329.28,-2053.73 307.48,-2053.73"/>
<text xml:space="preserve" text-anchor="middle" x="318.38" y="-2036.54" font-family="Times,serif" font-size="14.00">start</text>
</g>
<!-- verifier -->
<g id="node2" class="node">
<title>verifier</title>
<ellipse fill="none" stroke="black" cx="318.38" cy="-1932.57" rx="318.38" ry="53.17"/>
<text xml:space="preserve" text-anchor="middle" x="318.38" y="-1953.57" font-family="Times,serif" font-size="14.00">verifier</text>
<text xml:space="preserve" text-anchor="middle" x="318.38" y="-1936.77" font-family="Times,serif" font-size="14.00">in: chat_summarizer.illumination_path, chat_summarizer.refinements, run_id</text>
<text xml:space="preserve" text-anchor="middle" x="318.38" y="-1919.97" font-family="Times,serif" font-size="14.00">out: preferred_label, illumination_path, summary, explanation</text>
<text xml:space="preserve" text-anchor="middle" x="318.38" y="-1903.17" font-family="Times,serif" font-size="14.00">opus · think:high</text>
</g>
<!-- start&#45;&gt;verifier -->
<g id="edge1" class="edge">
<title>start&#45;&gt;verifier</title>
<path fill="none" stroke="black" d="M318.38,-2022.21C318.38,-2015.09 318.38,-2006.4 318.38,-1997.26"/>
<polygon fill="black" stroke="black" points="321.88,-1997.49 318.38,-1987.49 314.88,-1997.49 321.88,-1997.49"/>
</g>
<!-- remove_gate -->
<g id="node3" class="node">
<title>remove_gate</title>
<polygon fill="none" stroke="black" points="1333.71,-1824.39 1298.55,-1842.39 1228.22,-1842.39 1193.05,-1824.39 1228.22,-1806.39 1298.55,-1806.39 1333.71,-1824.39"/>
<text xml:space="preserve" text-anchor="middle" x="1263.38" y="-1820.19" font-family="Times,serif" font-size="14.00">remove_gate</text>
</g>
<!-- verifier&#45;&gt;remove_gate -->
<g id="edge2" class="edge">
<title>verifier&#45;&gt;remove_gate</title>
<path fill="none" stroke="black" d="M580.68,-1902.1C789.89,-1878.59 1068.18,-1847.33 1195.09,-1833.07"/>
<polygon fill="black" stroke="black" points="1195.47,-1836.55 1205.02,-1831.95 1194.69,-1829.59 1195.47,-1836.55"/>
</g>
<!-- explainer -->
<g id="node6" class="node">
<title>explainer</title>
<ellipse fill="none" stroke="black" cx="762.38" cy="-1421.68" rx="404.68" ry="53.17"/>
<text xml:space="preserve" text-anchor="middle" x="762.38" y="-1442.68" font-family="Times,serif" font-size="14.00">explainer</text>
<text xml:space="preserve" text-anchor="middle" x="762.38" y="-1425.88" font-family="Times,serif" font-size="14.00">in: verifier.illumination_path, verifier.summary, verifier.explanation, chat_summarizer.refinements</text>
<text xml:space="preserve" text-anchor="middle" x="762.38" y="-1409.08" font-family="Times,serif" font-size="14.00">out: explainer_render</text>
<text xml:space="preserve" text-anchor="middle" x="762.38" y="-1392.28" font-family="Times,serif" font-size="14.00">opus · think:high</text>
</g>
<!-- verifier&#45;&gt;explainer -->
<g id="edge3" class="edge">
<title>verifier&#45;&gt;explainer</title>
<path fill="none" stroke="black" d="M305.19,-1878.97C301.94,-1861.99 299.38,-1843 299.38,-1825.39 299.38,-1825.39 299.38,-1825.39 299.38,-1579.83 299.38,-1555.15 299.94,-1544.06 318.38,-1527.66 346.62,-1502.54 415.51,-1481.56 490.81,-1465.13"/>
<polygon fill="black" stroke="black" points="491.44,-1468.57 500.49,-1463.05 489.98,-1461.73 491.44,-1468.57"/>
</g>
<!-- done -->
<g id="node20" class="node">
<title>done</title>
<polygon fill="none" stroke="black" points="1406.99,-43.21 1363.77,-43.21 1363.77,0 1406.99,0 1406.99,-43.21"/>
<polyline fill="none" stroke="black" points="1375.77,-43.21 1363.77,-31.21"/>
<polyline fill="none" stroke="black" points="1363.77,-12 1375.77,0"/>
<polyline fill="none" stroke="black" points="1394.99,0 1406.99,-12"/>
<polyline fill="none" stroke="black" points="1406.99,-31.21 1394.99,-43.21"/>
<text xml:space="preserve" text-anchor="middle" x="1385.38" y="-17.41" font-family="Times,serif" font-size="14.00">done</text>
</g>
<!-- verifier&#45;&gt;done -->
<g id="edge4" class="edge">
<title>verifier&#45;&gt;done</title>
<path fill="none" stroke="black" d="M251.56,-1880.23C238.3,-1864.54 228.38,-1845.93 228.38,-1825.39 228.38,-1825.39 228.38,-1825.39 228.38,-97.21 228.38,-39.36 1161.9,-25.24 1351.88,-22.97"/>
<polygon fill="black" stroke="black" points="1351.83,-26.47 1361.79,-22.85 1351.75,-19.47 1351.83,-26.47"/>
</g>
<!-- consume_declined -->
<g id="node4" class="node">
<title>consume_declined</title>
<ellipse fill="none" stroke="black" cx="1389.38" cy="-1189.53" rx="82.9" ry="18"/>
<text xml:space="preserve" text-anchor="middle" x="1389.38" y="-1185.33" font-family="Times,serif" font-size="14.00">consume_declined</text>
</g>
<!-- remove_gate&#45;&gt;consume_declined -->
<g id="edge5" class="edge">
<title>remove_gate&#45;&gt;consume_declined</title>
<path fill="none" stroke="black" d="M1302.9,-1808.33C1339.85,-1791.36 1389.38,-1759.92 1389.38,-1713.3 1389.38,-1713.3 1389.38,-1713.3 1389.38,-1312.51 1389.38,-1280.62 1389.38,-1244.05 1389.38,-1219.34"/>
<polygon fill="black" stroke="black" points="1392.88,-1219.42 1389.38,-1209.42 1385.88,-1219.42 1392.88,-1219.42"/>
<text xml:space="preserve" text-anchor="middle" x="1411.93" y="-1497.06" font-family="Times,serif" font-size="14.00">Archive</text>
</g>
<!-- chat_session -->
<g id="node8" class="node">
<title>chat_session</title>
<ellipse fill="none" stroke="black" cx="926.38" cy="-1712.3" rx="435.47" ry="41.3"/>
<text xml:space="preserve" text-anchor="middle" x="926.38" y="-1724.9" font-family="Times,serif" font-size="14.00">chat_session</text>
<text xml:space="preserve" text-anchor="middle" x="926.38" y="-1708.1" font-family="Times,serif" font-size="14.00">in: run_id, verifier.illumination_path, verifier.summary, verifier.explanation, chat_summarizer.refinements</text>
<text xml:space="preserve" text-anchor="middle" x="926.38" y="-1691.3" font-family="Times,serif" font-size="14.00">sonnet</text>
</g>
<!-- remove_gate&#45;&gt;chat_session -->
<g id="edge7" class="edge">
<title>remove_gate&#45;&gt;chat_session</title>
<path fill="none" stroke="black" d="M1221.04,-1809.56C1179.85,-1796.11 1115.13,-1774.96 1056.82,-1755.91"/>
<polygon fill="black" stroke="black" points="1058.05,-1752.63 1047.46,-1752.85 1055.87,-1759.29 1058.05,-1752.63"/>
<text xml:space="preserve" text-anchor="middle" x="1167.6" y="-1775.79" font-family="Times,serif" font-size="14.00">Chat</text>
</g>
<!-- remove_gate&#45;&gt;done -->
<g id="edge6" class="edge">
<title>remove_gate&#45;&gt;done</title>
<path fill="none" stroke="black" d="M1326.89,-1820.46C1397.1,-1813.39 1500.38,-1789.97 1500.38,-1713.3 1500.38,-1713.3 1500.38,-1713.3 1500.38,-97.21 1500.38,-57.76 1452.17,-38.12 1418.18,-29.18"/>
<polygon fill="black" stroke="black" points="1419.3,-25.85 1408.75,-26.9 1417.65,-32.65 1419.3,-25.85"/>
<text xml:space="preserve" text-anchor="middle" x="1515.15" y="-889.41" font-family="Times,serif" font-size="14.00">Keep</text>
</g>
<!-- consume_declined&#45;&gt;done -->
<g id="edge15" class="edge">
<title>consume_declined&#45;&gt;done</title>
<path fill="none" stroke="black" d="M1389.58,-1171.12C1389.88,-1144.45 1390.38,-1091.85 1390.38,-1047.18 1390.38,-1047.18 1390.38,-1047.18 1390.38,-97.21 1390.38,-83.3 1389.51,-67.96 1388.49,-54.82"/>
<polygon fill="black" stroke="black" points="1391.99,-54.66 1387.66,-44.99 1385.01,-55.25 1391.99,-54.66"/>
</g>
<!-- consume_implemented -->
<g id="node5" class="node">
<title>consume_implemented</title>
<ellipse fill="none" stroke="black" cx="1222.38" cy="-98.21" rx="100.61" ry="18"/>
<text xml:space="preserve" text-anchor="middle" x="1222.38" y="-94.01" font-family="Times,serif" font-size="14.00">consume_implemented</text>
</g>
<!-- consume_implemented&#45;&gt;done -->
<g id="edge30" class="edge">
<title>consume_implemented&#45;&gt;done</title>
<path fill="none" stroke="black" d="M1257.75,-81.03C1286.19,-68.01 1325.79,-49.88 1353.31,-37.29"/>
<polygon fill="black" stroke="black" points="1354.57,-40.56 1362.2,-33.22 1351.65,-34.2 1354.57,-40.56"/>
</g>
<!-- approval_gate -->
<g id="node7" class="node">
<title>approval_gate</title>
<polygon fill="none" stroke="black" points="1289.28,-1313.51 1251.33,-1331.51 1175.43,-1331.51 1137.48,-1313.51 1175.43,-1295.51 1251.33,-1295.51 1289.28,-1313.51"/>
<text xml:space="preserve" text-anchor="middle" x="1213.38" y="-1309.31" font-family="Times,serif" font-size="14.00">approval_gate</text>
</g>
<!-- explainer&#45;&gt;approval_gate -->
<g id="edge8" class="edge">
<title>explainer&#45;&gt;approval_gate</title>
<path fill="none" stroke="black" d="M957.57,-1374.73C1027.95,-1358.16 1102.35,-1340.65 1152.65,-1328.8"/>
<polygon fill="black" stroke="black" points="1153.24,-1332.26 1162.17,-1326.56 1151.63,-1325.45 1153.24,-1332.26"/>
</g>
<!-- approval_gate&#45;&gt;consume_declined -->
<g id="edge9" class="edge">
<title>approval_gate&#45;&gt;consume_declined</title>
<path fill="none" stroke="black" d="M1238.6,-1295.03C1269.53,-1273.6 1322.05,-1237.2 1356.22,-1213.51"/>
<polygon fill="black" stroke="black" points="1357.87,-1216.63 1364.1,-1208.06 1353.89,-1210.87 1357.87,-1216.63"/>
<text xml:space="preserve" text-anchor="middle" x="1307.38" y="-1264.91" font-family="Times,serif" font-size="14.00">Decline</text>
</g>
<!-- approval_gate&#45;&gt;chat_session -->
<g id="edge11" class="edge">
<title>approval_gate&#45;&gt;chat_session</title>
<path fill="none" stroke="black" d="M1219.36,-1331.72C1236.23,-1383.74 1278.48,-1541.42 1206.38,-1634 1194.97,-1648.65 1166.96,-1661.27 1132.85,-1671.81"/>
<polygon fill="black" stroke="black" points="1132.11,-1668.38 1123.52,-1674.58 1134.11,-1675.09 1132.11,-1668.38"/>
<text xml:space="preserve" text-anchor="middle" x="1260.28" y="-1497.06" font-family="Times,serif" font-size="14.00">Chat</text>
</g>
<!-- design_writer -->
<g id="node10" class="node">
<title>design_writer</title>
<ellipse fill="none" stroke="black" cx="772.38" cy="-1189.53" rx="515.99" ry="53.17"/>
<text xml:space="preserve" text-anchor="middle" x="772.38" y="-1210.53" font-family="Times,serif" font-size="14.00">design_writer</text>
<text xml:space="preserve" text-anchor="middle" x="772.38" y="-1193.73" font-family="Times,serif" font-size="14.00">in: verifier.illumination_path, verifier.summary, verifier.explanation, explainer.explainer_render, chat_summarizer.refinements</text>
<text xml:space="preserve" text-anchor="middle" x="772.38" y="-1176.93" font-family="Times,serif" font-size="14.00">out: design_doc_path</text>
<text xml:space="preserve" text-anchor="middle" x="772.38" y="-1160.13" font-family="Times,serif" font-size="14.00">opus · think:high</text>
</g>
<!-- approval_gate&#45;&gt;design_writer -->
<g id="edge10" class="edge">
<title>approval_gate&#45;&gt;design_writer</title>
<path fill="none" stroke="black" d="M1166.19,-1299.45C1117.05,-1285.86 1036.91,-1263.7 961.7,-1242.89"/>
<polygon fill="black" stroke="black" points="962.67,-1239.53 952.1,-1240.24 960.8,-1246.28 962.67,-1239.53"/>
<text xml:space="preserve" text-anchor="middle" x="1107.56" y="-1264.91" font-family="Times,serif" font-size="14.00">Approve</text>
</g>
<!-- chat_summarizer -->
<g id="node9" class="node">
<title>chat_summarizer</title>
<ellipse fill="none" stroke="black" cx="762.38" cy="-1580.83" rx="435.47" ry="53.17"/>
<text xml:space="preserve" text-anchor="middle" x="762.38" y="-1601.83" font-family="Times,serif" font-size="14.00">chat_summarizer</text>
<text xml:space="preserve" text-anchor="middle" x="762.38" y="-1585.03" font-family="Times,serif" font-size="14.00">in: run_id, verifier.illumination_path, verifier.summary, verifier.explanation, chat_summarizer.refinements</text>
<text xml:space="preserve" text-anchor="middle" x="762.38" y="-1568.23" font-family="Times,serif" font-size="14.00">out: refinements, scope_changed, illumination_path</text>
<text xml:space="preserve" text-anchor="middle" x="762.38" y="-1551.43" font-family="Times,serif" font-size="14.00">sonnet</text>
</g>
<!-- chat_session&#45;&gt;chat_summarizer -->
<g id="edge12" class="edge">
<title>chat_session&#45;&gt;chat_summarizer</title>
<path fill="none" stroke="black" d="M875.39,-1671.04C863.24,-1661.45 850.03,-1651.02 837.06,-1640.79"/>
<polygon fill="black" stroke="black" points="839.35,-1638.13 829.33,-1634.68 835.01,-1643.63 839.35,-1638.13"/>
</g>
<!-- chat_summarizer&#45;&gt;verifier -->
<g id="edge13" class="edge">
<title>chat_summarizer&#45;&gt;verifier</title>
<path fill="none" stroke="black" d="M557.72,-1628.2C530.85,-1639.54 504.87,-1653.6 482.38,-1671 415.69,-1722.62 368.91,-1809.59 342.83,-1868.73"/>
<polygon fill="black" stroke="black" points="339.72,-1867.11 338.96,-1877.67 346.14,-1869.89 339.72,-1867.11"/>
</g>
<!-- chat_summarizer&#45;&gt;explainer -->
<g id="edge14" class="edge">
<title>chat_summarizer&#45;&gt;explainer</title>
<path fill="none" stroke="black" d="M762.38,-1527.5C762.38,-1514.39 762.38,-1500.17 762.38,-1486.57"/>
<polygon fill="black" stroke="black" points="765.88,-1486.83 762.38,-1476.83 758.88,-1486.83 765.88,-1486.83"/>
</g>
<!-- plan_writer -->
<g id="node11" class="node">
<title>plan_writer</title>
<ellipse fill="none" stroke="black" cx="695.38" cy="-1046.18" rx="377.49" ry="53.17"/>
<text xml:space="preserve" text-anchor="middle" x="695.38" y="-1067.18" font-family="Times,serif" font-size="14.00">plan_writer</text>
<text xml:space="preserve" text-anchor="middle" x="695.38" y="-1050.38" font-family="Times,serif" font-size="14.00">in: verifier.illumination_path, design_writer.design_doc_path, chat_summarizer.refinements</text>
<text xml:space="preserve" text-anchor="middle" x="695.38" y="-1033.58" font-family="Times,serif" font-size="14.00">out: plan_path</text>
<text xml:space="preserve" text-anchor="middle" x="695.38" y="-1016.78" font-family="Times,serif" font-size="14.00">opus · think:high</text>
</g>
<!-- design_writer&#45;&gt;plan_writer -->
<g id="edge16" class="edge">
<title>design_writer&#45;&gt;plan_writer</title>
<path fill="none" stroke="black" d="M743.93,-1136.3C739.2,-1127.62 734.25,-1118.53 729.4,-1109.62"/>
<polygon fill="black" stroke="black" points="732.56,-1108.11 724.7,-1101 726.41,-1111.46 732.56,-1108.11"/>
</g>
<!-- capture_pre_sha -->
<g id="node12" class="node">
<title>capture_pre_sha</title>
<ellipse fill="none" stroke="black" cx="631.38" cy="-938.01" rx="74.31" ry="18"/>
<text xml:space="preserve" text-anchor="middle" x="631.38" y="-933.81" font-family="Times,serif" font-size="14.00">capture_pre_sha</text>
</g>
<!-- plan_writer&#45;&gt;capture_pre_sha -->
<g id="edge17" class="edge">
<title>plan_writer&#45;&gt;capture_pre_sha</title>
<path fill="none" stroke="black" d="M663.76,-992.72C658.18,-983.46 652.58,-974.18 647.65,-966"/>
<polygon fill="black" stroke="black" points="650.75,-964.36 642.59,-957.6 644.76,-967.98 650.75,-964.36"/>
</g>
<!-- plan_scheduler -->
<g id="node13" class="node">
<title>plan_scheduler</title>
<ellipse fill="none" stroke="black" cx="588.38" cy="-814.03" rx="111.38" ry="53.17"/>
<text xml:space="preserve" text-anchor="middle" x="588.38" y="-835.03" font-family="Times,serif" font-size="14.00">plan_scheduler</text>
<text xml:space="preserve" text-anchor="middle" x="588.38" y="-818.23" font-family="Times,serif" font-size="14.00">in: plan_writer.plan_path</text>
<text xml:space="preserve" text-anchor="middle" x="588.38" y="-801.43" font-family="Times,serif" font-size="14.00">out: dag_path</text>
<text xml:space="preserve" text-anchor="middle" x="588.38" y="-784.63" font-family="Times,serif" font-size="14.00">opus · think:high</text>
</g>
<!-- capture_pre_sha&#45;&gt;plan_scheduler -->
<g id="edge18" class="edge">
<title>capture_pre_sha&#45;&gt;plan_scheduler</title>
<path fill="none" stroke="black" d="M625.31,-919.79C621.34,-908.53 615.89,-893.07 610.4,-877.48"/>
<polygon fill="black" stroke="black" points="613.73,-876.41 607.1,-868.14 607.13,-878.74 613.73,-876.41"/>
</g>
<!-- batch_orchestrator -->
<g id="node14" class="node">
<title>batch_orchestrator</title>
<ellipse fill="none" stroke="black" cx="582.38" cy="-670.69" rx="318.09" ry="53.17"/>
<text xml:space="preserve" text-anchor="middle" x="582.38" y="-691.69" font-family="Times,serif" font-size="14.00">batch_orchestrator</text>
<text xml:space="preserve" text-anchor="middle" x="582.38" y="-674.89" font-family="Times,serif" font-size="14.00">in: plan_writer.plan_path, plan_scheduler.dag_path, capture_pre_sha.pre_sha</text>
<text xml:space="preserve" text-anchor="middle" x="582.38" y="-658.09" font-family="Times,serif" font-size="14.00">out: done, conflicts_present, reason</text>
<text xml:space="preserve" text-anchor="middle" x="582.38" y="-641.29" font-family="Times,serif" font-size="14.00">opus · think:high</text>
</g>
<!-- plan_scheduler&#45;&gt;batch_orchestrator -->
<g id="edge19" class="edge">
<title>plan_scheduler&#45;&gt;batch_orchestrator</title>
<path fill="none" stroke="black" d="M586.15,-760.4C585.8,-752.2 585.44,-743.65 585.08,-735.24"/>
<polygon fill="black" stroke="black" points="588.58,-735.25 584.66,-725.4 581.59,-735.54 588.58,-735.25"/>
</g>
<!-- batch_orchestrator&#45;&gt;batch_orchestrator -->
<g id="edge21" class="edge">
<title>batch_orchestrator&#45;&gt;batch_orchestrator</title>
<path fill="none" stroke="black" d="M897.06,-678.88C910.6,-676.78 918.47,-674.05 918.47,-670.69 918.47,-668.38 914.75,-666.36 908.02,-664.65"/>
<polygon fill="black" stroke="black" points="909.03,-661.28 898.54,-662.79 907.68,-668.15 909.03,-661.28"/>
</g>
<!-- merge_resolver -->
<g id="node15" class="node">
<title>merge_resolver</title>
<ellipse fill="none" stroke="black" cx="555.38" cy="-527.34" rx="215.02" ry="53.17"/>
<text xml:space="preserve" text-anchor="middle" x="555.38" y="-548.34" font-family="Times,serif" font-size="14.00">merge_resolver</text>
<text xml:space="preserve" text-anchor="middle" x="555.38" y="-531.54" font-family="Times,serif" font-size="14.00">in: plan_writer.plan_path, plan_scheduler.dag_path</text>
<text xml:space="preserve" text-anchor="middle" x="555.38" y="-514.74" font-family="Times,serif" font-size="14.00">out: done</text>
<text xml:space="preserve" text-anchor="middle" x="555.38" y="-497.94" font-family="Times,serif" font-size="14.00">opus · think:high</text>
</g>
<!-- batch_orchestrator&#45;&gt;merge_resolver -->
<g id="edge20" class="edge">
<title>batch_orchestrator&#45;&gt;merge_resolver</title>
<path fill="none" stroke="black" d="M565.86,-617.45C564.08,-609.14 562.37,-600.47 560.81,-591.93"/>
<polygon fill="black" stroke="black" points="564.3,-591.56 559.12,-582.32 557.4,-592.77 564.3,-591.56"/>
</g>
<!-- tmux_tester -->
<g id="node16" class="node">
<title>tmux_tester</title>
<ellipse fill="none" stroke="black" cx="1084.38" cy="-527.34" rx="277.69" ry="53.17"/>
<text xml:space="preserve" text-anchor="middle" x="1084.38" y="-548.34" font-family="Times,serif" font-size="14.00">tmux_tester</text>
<text xml:space="preserve" text-anchor="middle" x="1084.38" y="-531.54" font-family="Times,serif" font-size="14.00">in: project, run_id, plan_writer.plan_path, capture_pre_sha.pre_sha</text>
<text xml:space="preserve" text-anchor="middle" x="1084.38" y="-514.74" font-family="Times,serif" font-size="14.00">out: test_result, test_summary, test_render, plan_files_touched</text>
<text xml:space="preserve" text-anchor="middle" x="1084.38" y="-497.94" font-family="Times,serif" font-size="14.00">sonnet</text>
</g>
<!-- batch_orchestrator&#45;&gt;tmux_tester -->
<g id="edge22" class="edge">
<title>batch_orchestrator&#45;&gt;tmux_tester</title>
<path fill="none" stroke="black" d="M743.29,-624.38C799.46,-608.56 862.58,-590.79 919.1,-574.88"/>
<polygon fill="black" stroke="black" points="919.81,-578.31 928.49,-572.23 917.91,-571.57 919.81,-578.31"/>
</g>
<!-- merge_resolver&#45;&gt;batch_orchestrator -->
<g id="edge24" class="edge">
<title>merge_resolver&#45;&gt;batch_orchestrator</title>
<path fill="none" stroke="black" d="M571.89,-580.54C573.67,-588.83 575.38,-597.47 576.93,-605.98"/>
<polygon fill="black" stroke="black" points="573.44,-606.32 578.62,-615.56 580.33,-605.11 573.44,-606.32"/>
</g>
<!-- merge_resolver&#45;&gt;merge_resolver -->
<g id="edge23" class="edge">
<title>merge_resolver&#45;&gt;merge_resolver</title>
<path fill="none" stroke="black" d="M767.53,-536.7C780.56,-534.48 788.4,-531.36 788.4,-527.34 788.4,-524.63 784.86,-522.34 778.59,-520.45"/>
<polygon fill="black" stroke="black" points="779.53,-517.07 769.01,-518.31 778,-523.9 779.53,-517.07"/>
</g>
<!-- tmux_confirm_gate -->
<g id="node17" class="node">
<title>tmux_confirm_gate</title>
<polygon fill="none" stroke="black" points="1201.07,-403.36 1150.73,-421.36 1050.04,-421.36 999.69,-403.36 1050.04,-385.36 1150.73,-385.36 1201.07,-403.36"/>
<text xml:space="preserve" text-anchor="middle" x="1100.38" y="-399.16" font-family="Times,serif" font-size="14.00">tmux_confirm_gate</text>
</g>
<!-- tmux_tester&#45;&gt;tmux_confirm_gate -->
<g id="edge25" class="edge">
<title>tmux_tester&#45;&gt;tmux_confirm_gate</title>
<path fill="none" stroke="black" d="M1086.23,-473.69C1087.13,-462.32 1088.45,-450.39 1090.38,-439.36 1090.77,-437.17 1091.23,-434.92 1091.76,-432.66"/>
<polygon fill="black" stroke="black" points="1095.11,-433.67 1094.28,-423.11 1088.34,-431.88 1095.11,-433.67"/>
</g>
<!-- tmux_confirm_gate&#45;&gt;tmux_tester -->
<g id="edge28" class="edge">
<title>tmux_confirm_gate&#45;&gt;tmux_tester</title>
<path fill="none" stroke="black" d="M1098.11,-421.68C1096.67,-432.68 1094.7,-447.67 1092.71,-462.86"/>
<polygon fill="black" stroke="black" points="1089.29,-462.03 1091.46,-472.4 1096.23,-462.94 1089.29,-462.03"/>
<text xml:space="preserve" text-anchor="middle" x="1111.21" y="-443.56" font-family="Times,serif" font-size="14.00">Retry</text>
</g>
<!-- doc_drift_sync -->
<g id="node18" class="node">
<title>doc_drift_sync</title>
<ellipse fill="none" stroke="black" cx="1100.38" cy="-279.39" rx="261.74" ry="53.17"/>
<text xml:space="preserve" text-anchor="middle" x="1100.38" y="-300.39" font-family="Times,serif" font-size="14.00">doc_drift_sync</text>
<text xml:space="preserve" text-anchor="middle" x="1100.38" y="-283.59" font-family="Times,serif" font-size="14.00">in: project, verifier.illumination_path, capture_pre_sha.pre_sha</text>
<text xml:space="preserve" text-anchor="middle" x="1100.38" y="-266.79" font-family="Times,serif" font-size="14.00">out: docs_updated, files_touched, reasoning</text>
<text xml:space="preserve" text-anchor="middle" x="1100.38" y="-249.99" font-family="Times,serif" font-size="14.00">opus · think:high</text>
</g>
<!-- tmux_confirm_gate&#45;&gt;doc_drift_sync -->
<g id="edge26" class="edge">
<title>tmux_confirm_gate&#45;&gt;doc_drift_sync</title>
<path fill="none" stroke="black" d="M1100.38,-384.89C1100.38,-374.02 1100.38,-359.31 1100.38,-344.36"/>
<polygon fill="black" stroke="black" points="1103.88,-344.45 1100.38,-334.45 1096.88,-344.45 1103.88,-344.45"/>
<text xml:space="preserve" text-anchor="middle" x="1123.33" y="-354.76" font-family="Times,serif" font-size="14.00">Commit</text>
</g>
<!-- commit_push -->
<g id="node19" class="node">
<title>commit_push</title>
<ellipse fill="none" stroke="black" cx="1177.38" cy="-171.21" rx="63.61" ry="18"/>
<text xml:space="preserve" text-anchor="middle" x="1177.38" y="-167.01" font-family="Times,serif" font-size="14.00">commit_push</text>
</g>
<!-- doc_drift_sync&#45;&gt;commit_push -->
<g id="edge27" class="edge">
<title>doc_drift_sync&#45;&gt;commit_push</title>
<path fill="none" stroke="black" d="M1137.98,-226.55C1145.08,-216.75 1152.22,-206.91 1158.44,-198.34"/>
<polygon fill="black" stroke="black" points="1161.08,-200.65 1164.12,-190.5 1155.42,-196.54 1161.08,-200.65"/>
</g>
<!-- commit_push&#45;&gt;consume_implemented -->
<g id="edge29" class="edge">
<title>commit_push&#45;&gt;consume_implemented</title>
<path fill="none" stroke="black" d="M1188.27,-153.03C1193.47,-144.83 1199.8,-134.84 1205.6,-125.7"/>
<polygon fill="black" stroke="black" points="1208.38,-127.84 1210.78,-117.52 1202.47,-124.09 1208.38,-127.84"/>
</g>
</g>
</svg>
