<?xml version="1.0" encoding="UTF-8" standalone="no"?>
<!DOCTYPE svg PUBLIC "-//W3C//DTD SVG 1.1//EN"
 "http://www.w3.org/Graphics/SVG/1.1/DTD/svg11.dtd">
<!-- Generated by graphviz version 14.1.3 (0)
 -->
<!-- Title: parallel_illumination_to_implementation Pages: 1 -->
<svg width="1531pt" height="1762pt"
 viewBox="0.00 0.00 1531.00 1762.00" xmlns="http://www.w3.org/2000/svg" xmlns:xlink="http://www.w3.org/1999/xlink">
<g id="graph0" class="graph" transform="scale(1 1) rotate(0) translate(4 1757.59)">
<title>parallel_illumination_to_implementation</title>
<polygon fill="white" stroke="none" points="-4,4 -4,-1757.59 1526.92,-1757.59 1526.92,4 -4,4"/>
<!-- start -->
<g id="node1" class="node">
<title>start</title>
<polygon fill="none" stroke="black" points="318.38,-1753.59 279.26,-1735.59 318.38,-1717.59 357.5,-1735.59 318.38,-1753.59"/>
<polyline fill="none" stroke="black" points="290.16,-1740.61 290.16,-1730.58"/>
<polyline fill="none" stroke="black" points="307.48,-1722.61 329.28,-1722.61"/>
<polyline fill="none" stroke="black" points="346.6,-1730.58 346.6,-1740.61"/>
<polyline fill="none" stroke="black" points="329.28,-1748.58 307.48,-1748.58"/>
<text xml:space="preserve" text-anchor="middle" x="318.38" y="-1731.39" font-family="Times,serif" font-size="14.00">start</text>
</g>
<!-- verifier -->
<g id="node2" class="node">
<title>verifier</title>
<ellipse fill="none" stroke="black" cx="318.38" cy="-1627.42" rx="318.38" ry="53.17"/>
<text xml:space="preserve" text-anchor="middle" x="318.38" y="-1648.42" font-family="Times,serif" font-size="14.00">verifier</text>
<text xml:space="preserve" text-anchor="middle" x="318.38" y="-1631.62" font-family="Times,serif" font-size="14.00">in: chat_summarizer.illumination_path, chat_summarizer.refinements, run_id</text>
<text xml:space="preserve" text-anchor="middle" x="318.38" y="-1614.82" font-family="Times,serif" font-size="14.00">out: preferred_label, illumination_path, summary, explanation</text>
<text xml:space="preserve" text-anchor="middle" x="318.38" y="-1598.02" font-family="Times,serif" font-size="14.00">opus · think:high</text>
</g>
<!-- start&#45;&gt;verifier -->
<g id="edge1" class="edge">
<title>start&#45;&gt;verifier</title>
<path fill="none" stroke="black" d="M318.38,-1717.06C318.38,-1709.94 318.38,-1701.25 318.38,-1692.11"/>
<polygon fill="black" stroke="black" points="321.88,-1692.35 318.38,-1682.35 314.88,-1692.35 321.88,-1692.35"/>
</g>
<!-- remove_gate -->
<g id="node3" class="node">
<title>remove_gate</title>
<polygon fill="none" stroke="black" points="1326.71,-1519.25 1291.55,-1537.25 1221.22,-1537.25 1186.05,-1519.25 1221.22,-1501.25 1291.55,-1501.25 1326.71,-1519.25"/>
<text xml:space="preserve" text-anchor="middle" x="1256.38" y="-1515.05" font-family="Times,serif" font-size="14.00">remove_gate</text>
</g>
<!-- verifier&#45;&gt;remove_gate -->
<g id="edge2" class="edge">
<title>verifier&#45;&gt;remove_gate</title>
<path fill="none" stroke="black" d="M579.98,-1596.81C787.35,-1573.34 1062.45,-1542.2 1188.3,-1527.95"/>
<polygon fill="black" stroke="black" points="1188.6,-1531.44 1198.14,-1526.84 1187.81,-1524.49 1188.6,-1531.44"/>
</g>
<!-- explainer -->
<g id="node5" class="node">
<title>explainer</title>
<ellipse fill="none" stroke="black" cx="762.38" cy="-1116.53" rx="404.68" ry="53.17"/>
<text xml:space="preserve" text-anchor="middle" x="762.38" y="-1137.53" font-family="Times,serif" font-size="14.00">explainer</text>
<text xml:space="preserve" text-anchor="middle" x="762.38" y="-1120.73" font-family="Times,serif" font-size="14.00">in: verifier.illumination_path, verifier.summary, verifier.explanation, chat_summarizer.refinements</text>
<text xml:space="preserve" text-anchor="middle" x="762.38" y="-1103.93" font-family="Times,serif" font-size="14.00">out: explainer_render</text>
<text xml:space="preserve" text-anchor="middle" x="762.38" y="-1087.13" font-family="Times,serif" font-size="14.00">opus · think:high</text>
</g>
<!-- verifier&#45;&gt;explainer -->
<g id="edge3" class="edge">
<title>verifier&#45;&gt;explainer</title>
<path fill="none" stroke="black" d="M305.19,-1573.83C301.94,-1556.84 299.38,-1537.85 299.38,-1520.25 299.38,-1520.25 299.38,-1520.25 299.38,-1274.68 299.38,-1250 299.94,-1238.91 318.38,-1222.51 346.62,-1197.39 415.51,-1176.41 490.81,-1159.98"/>
<polygon fill="black" stroke="black" points="491.44,-1163.42 500.49,-1157.9 489.98,-1156.58 491.44,-1163.42"/>
</g>
<!-- done -->
<g id="node17" class="node">
<title>done</title>
<polygon fill="none" stroke="black" points="1348.99,-43.21 1305.77,-43.21 1305.77,0 1348.99,0 1348.99,-43.21"/>
<polyline fill="none" stroke="black" points="1317.77,-43.21 1305.77,-31.21"/>
<polyline fill="none" stroke="black" points="1305.77,-12 1317.77,0"/>
<polyline fill="none" stroke="black" points="1336.99,0 1348.99,-12"/>
<polyline fill="none" stroke="black" points="1348.99,-31.21 1336.99,-43.21"/>
<text xml:space="preserve" text-anchor="middle" x="1327.38" y="-17.41" font-family="Times,serif" font-size="14.00">done</text>
</g>
<!-- verifier&#45;&gt;done -->
<g id="edge4" class="edge">
<title>verifier&#45;&gt;done</title>
<path fill="none" stroke="black" d="M245.86,-1575.44C231.83,-1559.86 221.38,-1541.22 221.38,-1520.25 221.38,-1520.25 221.38,-1520.25 221.38,-113.01 221.38,-57.78 1109.07,-28.95 1293.91,-23.55"/>
<polygon fill="black" stroke="black" points="1293.88,-27.05 1303.78,-23.26 1293.68,-20.05 1293.88,-27.05"/>
</g>
<!-- consume_declined -->
<g id="node4" class="node">
<title>consume_declined</title>
<ellipse fill="none" stroke="black" cx="1382.38" cy="-884.38" rx="82.9" ry="18"/>
<text xml:space="preserve" text-anchor="middle" x="1382.38" y="-880.18" font-family="Times,serif" font-size="14.00">consume_declined</text>
</g>
<!-- remove_gate&#45;&gt;consume_declined -->
<g id="edge5" class="edge">
<title>remove_gate&#45;&gt;consume_declined</title>
<path fill="none" stroke="black" d="M1295.9,-1503.18C1332.85,-1486.21 1382.38,-1454.77 1382.38,-1408.15 1382.38,-1408.15 1382.38,-1408.15 1382.38,-1007.36 1382.38,-975.47 1382.38,-938.9 1382.38,-914.19"/>
<polygon fill="black" stroke="black" points="1385.88,-914.27 1382.38,-904.27 1378.88,-914.27 1385.88,-914.27"/>
<text xml:space="preserve" text-anchor="middle" x="1404.93" y="-1191.91" font-family="Times,serif" font-size="14.00">Archive</text>
</g>
<!-- chat_session -->
<g id="node7" class="node">
<title>chat_session</title>
<ellipse fill="none" stroke="black" cx="919.38" cy="-1407.15" rx="435.47" ry="41.3"/>
<text xml:space="preserve" text-anchor="middle" x="919.38" y="-1419.75" font-family="Times,serif" font-size="14.00">chat_session</text>
<text xml:space="preserve" text-anchor="middle" x="919.38" y="-1402.95" font-family="Times,serif" font-size="14.00">in: run_id, verifier.illumination_path, verifier.summary, verifier.explanation, chat_summarizer.refinements</text>
<text xml:space="preserve" text-anchor="middle" x="919.38" y="-1386.15" font-family="Times,serif" font-size="14.00">sonnet</text>
</g>
<!-- remove_gate&#45;&gt;chat_session -->
<g id="edge7" class="edge">
<title>remove_gate&#45;&gt;chat_session</title>
<path fill="none" stroke="black" d="M1214.04,-1504.41C1172.85,-1490.96 1108.13,-1469.81 1049.82,-1450.76"/>
<polygon fill="black" stroke="black" points="1051.05,-1447.48 1040.46,-1447.7 1048.87,-1454.14 1051.05,-1447.48"/>
<text xml:space="preserve" text-anchor="middle" x="1160.6" y="-1470.65" font-family="Times,serif" font-size="14.00">Chat</text>
</g>
<!-- remove_gate&#45;&gt;done -->
<g id="edge6" class="edge">
<title>remove_gate&#45;&gt;done</title>
<path fill="none" stroke="black" d="M1319.89,-1515.31C1390.1,-1508.24 1493.38,-1484.82 1493.38,-1408.15 1493.38,-1408.15 1493.38,-1408.15 1493.38,-113.01 1493.38,-53.14 1409.06,-32.69 1360.61,-25.88"/>
<polygon fill="black" stroke="black" points="1361.29,-22.44 1350.93,-24.65 1360.41,-29.38 1361.29,-22.44"/>
<text xml:space="preserve" text-anchor="middle" x="1508.15" y="-736.83" font-family="Times,serif" font-size="14.00">Keep</text>
</g>
<!-- consume_declined&#45;&gt;done -->
<g id="edge15" class="edge">
<title>consume_declined&#45;&gt;done</title>
<path fill="none" stroke="black" d="M1385.21,-866.03C1389.31,-839.42 1396.38,-786.92 1396.38,-742.03 1396.38,-742.03 1396.38,-742.03 1396.38,-113.01 1396.38,-85.74 1376.29,-61.58 1357.8,-45.11"/>
<polygon fill="black" stroke="black" points="1360.28,-42.62 1350.37,-38.86 1355.77,-47.98 1360.28,-42.62"/>
</g>
<!-- approval_gate -->
<g id="node6" class="node">
<title>approval_gate</title>
<polygon fill="none" stroke="black" points="1180.28,-1008.36 1142.33,-1026.36 1066.43,-1026.36 1028.48,-1008.36 1066.43,-990.36 1142.33,-990.36 1180.28,-1008.36"/>
<text xml:space="preserve" text-anchor="middle" x="1104.38" y="-1004.16" font-family="Times,serif" font-size="14.00">approval_gate</text>
</g>
<!-- explainer&#45;&gt;approval_gate -->
<g id="edge8" class="edge">
<title>explainer&#45;&gt;approval_gate</title>
<path fill="none" stroke="black" d="M918.37,-1067.11C964.99,-1052.63 1013.11,-1037.69 1048.72,-1026.64"/>
<polygon fill="black" stroke="black" points="1049.4,-1030.09 1057.91,-1023.78 1047.32,-1023.41 1049.4,-1030.09"/>
</g>
<!-- approval_gate&#45;&gt;consume_declined -->
<g id="edge9" class="edge">
<title>approval_gate&#45;&gt;consume_declined</title>
<path fill="none" stroke="black" d="M1148.78,-992.9C1186.97,-979.94 1243.21,-959.62 1290.38,-937.56 1309.25,-928.73 1329.47,-917.48 1346.13,-907.69"/>
<polygon fill="black" stroke="black" points="1347.89,-910.71 1354.7,-902.59 1344.31,-904.7 1347.89,-910.71"/>
<text xml:space="preserve" text-anchor="middle" x="1267.2" y="-959.76" font-family="Times,serif" font-size="14.00">Decline</text>
</g>
<!-- approval_gate&#45;&gt;chat_session -->
<g id="edge11" class="edge">
<title>approval_gate&#45;&gt;chat_session</title>
<path fill="none" stroke="black" d="M1137.58,-1026.81C1151.66,-1035.87 1166.97,-1048.24 1176.38,-1063.36 1177.51,-1065.17 1239.14,-1286.11 1206.38,-1328.86 1194.93,-1343.8 1166.7,-1356.5 1132.18,-1367.02"/>
<polygon fill="black" stroke="black" points="1131.34,-1363.62 1122.73,-1369.8 1133.31,-1370.34 1131.34,-1363.62"/>
<text xml:space="preserve" text-anchor="middle" x="1221.31" y="-1191.91" font-family="Times,serif" font-size="14.00">Chat</text>
</g>
<!-- design_writer -->
<g id="node9" class="node">
<title>design_writer</title>
<ellipse fill="none" stroke="black" cx="765.38" cy="-884.38" rx="515.99" ry="53.17"/>
<text xml:space="preserve" text-anchor="middle" x="765.38" y="-905.38" font-family="Times,serif" font-size="14.00">design_writer</text>
<text xml:space="preserve" text-anchor="middle" x="765.38" y="-888.58" font-family="Times,serif" font-size="14.00">in: verifier.illumination_path, verifier.summary, verifier.explanation, explainer.explainer_render, chat_summarizer.refinements</text>
<text xml:space="preserve" text-anchor="middle" x="765.38" y="-871.78" font-family="Times,serif" font-size="14.00">out: design_doc_path</text>
<text xml:space="preserve" text-anchor="middle" x="765.38" y="-854.98" font-family="Times,serif" font-size="14.00">opus · think:high</text>
</g>
<!-- approval_gate&#45;&gt;design_writer -->
<g id="edge10" class="edge">
<title>approval_gate&#45;&gt;design_writer</title>
<path fill="none" stroke="black" d="M1061.79,-992.03C1025.03,-978.81 969.64,-958.88 916.65,-939.81"/>
<polygon fill="black" stroke="black" points="918.1,-936.61 907.51,-936.52 915.73,-943.2 918.1,-936.61"/>
<text xml:space="preserve" text-anchor="middle" x="1028.7" y="-959.76" font-family="Times,serif" font-size="14.00">Approve</text>
</g>
<!-- chat_summarizer -->
<g id="node8" class="node">
<title>chat_summarizer</title>
<ellipse fill="none" stroke="black" cx="762.38" cy="-1275.68" rx="435.47" ry="53.17"/>
<text xml:space="preserve" text-anchor="middle" x="762.38" y="-1296.68" font-family="Times,serif" font-size="14.00">chat_summarizer</text>
<text xml:space="preserve" text-anchor="middle" x="762.38" y="-1279.88" font-family="Times,serif" font-size="14.00">in: run_id, verifier.illumination_path, verifier.summary, verifier.explanation, chat_summarizer.refinements</text>
<text xml:space="preserve" text-anchor="middle" x="762.38" y="-1263.08" font-family="Times,serif" font-size="14.00">out: refinements, scope_changed, illumination_path</text>
<text xml:space="preserve" text-anchor="middle" x="762.38" y="-1246.28" font-family="Times,serif" font-size="14.00">sonnet</text>
</g>
<!-- chat_session&#45;&gt;chat_summarizer -->
<g id="edge12" class="edge">
<title>chat_session&#45;&gt;chat_summarizer</title>
<path fill="none" stroke="black" d="M870.57,-1365.9C858.94,-1356.31 846.29,-1345.88 833.88,-1335.64"/>
<polygon fill="black" stroke="black" points="836.45,-1333.22 826.5,-1329.56 831.99,-1338.62 836.45,-1333.22"/>
</g>
<!-- chat_summarizer&#45;&gt;verifier -->
<g id="edge13" class="edge">
<title>chat_summarizer&#45;&gt;verifier</title>
<path fill="none" stroke="black" d="M551.2,-1322.53C524.09,-1333.94 497.97,-1348.15 475.38,-1365.86 409.71,-1417.34 365.29,-1504.54 340.91,-1563.75"/>
<polygon fill="black" stroke="black" points="337.8,-1562.11 337.3,-1572.69 344.29,-1564.73 337.8,-1562.11"/>
</g>
<!-- chat_summarizer&#45;&gt;explainer -->
<g id="edge14" class="edge">
<title>chat_summarizer&#45;&gt;explainer</title>
<path fill="none" stroke="black" d="M762.38,-1222.35C762.38,-1209.24 762.38,-1195.02 762.38,-1181.42"/>
<polygon fill="black" stroke="black" points="765.88,-1181.68 762.38,-1171.68 758.88,-1181.68 765.88,-1181.68"/>
</g>
<!-- plan_writer -->
<g id="node10" class="node">
<title>plan_writer</title>
<ellipse fill="none" stroke="black" cx="695.38" cy="-741.03" rx="377.49" ry="53.17"/>
<text xml:space="preserve" text-anchor="middle" x="695.38" y="-762.03" font-family="Times,serif" font-size="14.00">plan_writer</text>
<text xml:space="preserve" text-anchor="middle" x="695.38" y="-745.23" font-family="Times,serif" font-size="14.00">in: verifier.illumination_path, design_writer.design_doc_path, chat_summarizer.refinements</text>
<text xml:space="preserve" text-anchor="middle" x="695.38" y="-728.43" font-family="Times,serif" font-size="14.00">out: plan_path</text>
<text xml:space="preserve" text-anchor="middle" x="695.38" y="-711.63" font-family="Times,serif" font-size="14.00">opus · think:high</text>
</g>
<!-- design_writer&#45;&gt;plan_writer -->
<g id="edge16" class="edge">
<title>design_writer&#45;&gt;plan_writer</title>
<path fill="none" stroke="black" d="M739.52,-831.15C735.26,-822.56 730.81,-813.58 726.45,-804.76"/>
<polygon fill="black" stroke="black" points="729.62,-803.29 722.05,-795.88 723.35,-806.39 729.62,-803.29"/>
</g>
<!-- capture_pre_sha -->
<g id="node11" class="node">
<title>capture_pre_sha</title>
<ellipse fill="none" stroke="black" cx="655.38" cy="-632.86" rx="74.31" ry="18"/>
<text xml:space="preserve" text-anchor="middle" x="655.38" y="-628.66" font-family="Times,serif" font-size="14.00">capture_pre_sha</text>
</g>
<!-- plan_writer&#45;&gt;capture_pre_sha -->
<g id="edge17" class="edge">
<title>plan_writer&#45;&gt;capture_pre_sha</title>
<path fill="none" stroke="black" d="M675.62,-687.57C672.24,-678.62 668.86,-669.65 665.86,-661.67"/>
<polygon fill="black" stroke="black" points="669.23,-660.7 662.43,-652.58 662.68,-663.17 669.23,-660.7"/>
</g>
<!-- plan_scheduler -->
<g id="node12" class="node">
<title>plan_scheduler</title>
<ellipse fill="none" stroke="black" cx="589.38" cy="-524.69" rx="111.38" ry="53.17"/>
<text xml:space="preserve" text-anchor="middle" x="589.38" y="-545.69" font-family="Times,serif" font-size="14.00">plan_scheduler</text>
<text xml:space="preserve" text-anchor="middle" x="589.38" y="-528.89" font-family="Times,serif" font-size="14.00">in: plan_writer.plan_path</text>
<text xml:space="preserve" text-anchor="middle" x="589.38" y="-512.09" font-family="Times,serif" font-size="14.00">out: dag_path</text>
<text xml:space="preserve" text-anchor="middle" x="589.38" y="-495.29" font-family="Times,serif" font-size="14.00">opus</text>
</g>
<!-- capture_pre_sha&#45;&gt;plan_scheduler -->
<g id="edge18" class="edge">
<title>capture_pre_sha&#45;&gt;plan_scheduler</title>
<path fill="none" stroke="black" d="M644.78,-614.8C639.76,-606.72 633.42,-596.54 626.85,-585.96"/>
<polygon fill="black" stroke="black" points="629.83,-584.12 621.58,-577.48 623.88,-587.82 629.83,-584.12"/>
</g>
<!-- batch_orchestrator -->
<g id="node13" class="node">
<title>batch_orchestrator</title>
<ellipse fill="none" stroke="black" cx="569.38" cy="-381.34" rx="318.09" ry="53.17"/>
<text xml:space="preserve" text-anchor="middle" x="569.38" y="-402.34" font-family="Times,serif" font-size="14.00">batch_orchestrator</text>
<text xml:space="preserve" text-anchor="middle" x="569.38" y="-385.54" font-family="Times,serif" font-size="14.00">in: plan_writer.plan_path, plan_scheduler.dag_path, capture_pre_sha.pre_sha</text>
<text xml:space="preserve" text-anchor="middle" x="569.38" y="-368.74" font-family="Times,serif" font-size="14.00">out: done, conflicts_present, reason</text>
<text xml:space="preserve" text-anchor="middle" x="569.38" y="-351.94" font-family="Times,serif" font-size="14.00">opus</text>
</g>
<!-- plan_scheduler&#45;&gt;batch_orchestrator -->
<g id="edge19" class="edge">
<title>plan_scheduler&#45;&gt;batch_orchestrator</title>
<path fill="none" stroke="black" d="M581.99,-471.45C580.83,-463.24 579.62,-454.66 578.42,-446.22"/>
<polygon fill="black" stroke="black" points="581.89,-445.74 577.02,-436.32 574.96,-446.72 581.89,-445.74"/>
</g>
<!-- batch_orchestrator&#45;&gt;batch_orchestrator -->
<g id="edge21" class="edge">
<title>batch_orchestrator&#45;&gt;batch_orchestrator</title>
<path fill="none" stroke="black" d="M884.06,-389.53C897.6,-387.43 905.47,-384.7 905.47,-381.34 905.47,-379.03 901.75,-377.02 895.02,-375.3"/>
<polygon fill="black" stroke="black" points="896.03,-371.93 885.54,-373.44 894.68,-378.8 896.03,-371.93"/>
</g>
<!-- merge_resolver -->
<g id="node14" class="node">
<title>merge_resolver</title>
<ellipse fill="none" stroke="black" cx="561.38" cy="-237.99" rx="215.02" ry="53.17"/>
<text xml:space="preserve" text-anchor="middle" x="561.38" y="-258.99" font-family="Times,serif" font-size="14.00">merge_resolver</text>
<text xml:space="preserve" text-anchor="middle" x="561.38" y="-242.19" font-family="Times,serif" font-size="14.00">in: plan_writer.plan_path, plan_scheduler.dag_path</text>
<text xml:space="preserve" text-anchor="middle" x="561.38" y="-225.39" font-family="Times,serif" font-size="14.00">out: done</text>
<text xml:space="preserve" text-anchor="middle" x="561.38" y="-208.59" font-family="Times,serif" font-size="14.00">opus</text>
</g>
<!-- batch_orchestrator&#45;&gt;merge_resolver -->
<g id="edge20" class="edge">
<title>batch_orchestrator&#45;&gt;merge_resolver</title>
<path fill="none" stroke="black" d="M559.85,-327.7C559.2,-319.5 558.66,-310.95 558.26,-302.54"/>
<polygon fill="black" stroke="black" points="561.76,-302.56 557.86,-292.71 554.77,-302.84 561.76,-302.56"/>
</g>
<!-- tmux_tester -->
<g id="node15" class="node">
<title>tmux_tester</title>
<ellipse fill="none" stroke="black" cx="1090.38" cy="-237.99" rx="277.69" ry="53.17"/>
<text xml:space="preserve" text-anchor="middle" x="1090.38" y="-258.99" font-family="Times,serif" font-size="14.00">tmux_tester</text>
<text xml:space="preserve" text-anchor="middle" x="1090.38" y="-242.19" font-family="Times,serif" font-size="14.00">in: project, run_id, plan_writer.plan_path, capture_pre_sha.pre_sha</text>
<text xml:space="preserve" text-anchor="middle" x="1090.38" y="-225.39" font-family="Times,serif" font-size="14.00">out: test_result, test_summary, test_render, plan_files_touched</text>
<text xml:space="preserve" text-anchor="middle" x="1090.38" y="-208.59" font-family="Times,serif" font-size="14.00">opus</text>
</g>
<!-- batch_orchestrator&#45;&gt;tmux_tester -->
<g id="edge22" class="edge">
<title>batch_orchestrator&#45;&gt;tmux_tester</title>
<path fill="none" stroke="black" d="M734.59,-335.52C793.93,-319.42 860.92,-301.24 920.64,-285.04"/>
<polygon fill="black" stroke="black" points="921.51,-288.43 930.25,-282.43 919.68,-281.67 921.51,-288.43"/>
</g>
<!-- merge_resolver&#45;&gt;batch_orchestrator -->
<g id="edge24" class="edge">
<title>merge_resolver&#45;&gt;batch_orchestrator</title>
<path fill="none" stroke="black" d="M570.88,-291.19C571.53,-299.38 572.07,-307.93 572.48,-316.35"/>
<polygon fill="black" stroke="black" points="568.98,-316.35 572.89,-326.19 575.97,-316.06 568.98,-316.35"/>
</g>
<!-- merge_resolver&#45;&gt;merge_resolver -->
<g id="edge23" class="edge">
<title>merge_resolver&#45;&gt;merge_resolver</title>
<path fill="none" stroke="black" d="M773.53,-247.35C786.56,-245.13 794.4,-242.01 794.4,-237.99 794.4,-235.28 790.86,-232.99 784.59,-231.1"/>
<polygon fill="black" stroke="black" points="785.53,-227.72 775.01,-228.96 784,-234.56 785.53,-227.72"/>
</g>
<!-- tmux_confirm_gate -->
<g id="node16" class="node">
<title>tmux_confirm_gate</title>
<polygon fill="none" stroke="black" points="1224.07,-114.01 1173.73,-132.01 1073.04,-132.01 1022.69,-114.01 1073.04,-96.01 1173.73,-96.01 1224.07,-114.01"/>
<text xml:space="preserve" text-anchor="middle" x="1123.38" y="-109.81" font-family="Times,serif" font-size="14.00">tmux_confirm_gate</text>
</g>
<!-- tmux_tester&#45;&gt;tmux_confirm_gate -->
<g id="edge25" class="edge">
<title>tmux_tester&#45;&gt;tmux_confirm_gate</title>
<path fill="none" stroke="black" d="M1095.85,-184.78C1097.87,-173.15 1100.63,-161.02 1104.38,-150.01 1105.25,-147.47 1106.29,-144.9 1107.43,-142.36"/>
<polygon fill="black" stroke="black" points="1110.45,-144.15 1111.82,-133.64 1104.2,-140.99 1110.45,-144.15"/>
</g>
<!-- tmux_confirm_gate&#45;&gt;tmux_tester -->
<g id="edge27" class="edge">
<title>tmux_confirm_gate&#45;&gt;tmux_tester</title>
<path fill="none" stroke="black" d="M1118.7,-132.34C1115.72,-143.34 1111.67,-158.32 1107.56,-173.51"/>
<polygon fill="black" stroke="black" points="1104.2,-172.52 1104.96,-183.09 1110.95,-174.35 1104.2,-172.52"/>
<text xml:space="preserve" text-anchor="middle" x="1129.18" y="-154.21" font-family="Times,serif" font-size="14.00">Retry</text>
</g>
<!-- tmux_confirm_gate&#45;&gt;done -->
<g id="edge26" class="edge">
<title>tmux_confirm_gate&#45;&gt;done</title>
<path fill="none" stroke="black" d="M1162.71,-95.58C1201.22,-78.52 1259.19,-52.83 1295.08,-36.92"/>
<polygon fill="black" stroke="black" points="1296.36,-40.18 1304.08,-32.93 1293.52,-33.78 1296.36,-40.18"/>
<text xml:space="preserve" text-anchor="middle" x="1260.54" y="-65.41" font-family="Times,serif" font-size="14.00">Commit</text>
</g>
</g>
</svg>
