<?xml version="1.0" encoding="UTF-8" standalone="no"?>
<!DOCTYPE svg PUBLIC "-//W3C//DTD SVG 1.1//EN"
 "http://www.w3.org/Graphics/SVG/1.1/DTD/svg11.dtd">
<!-- Generated by graphviz version 14.1.3 (0)
 -->
<!-- Title: illumination_to_implementation Pages: 1 -->
<svg width="848pt" height="1263pt"
 viewBox="0.00 0.00 848.00 1263.00" xmlns="http://www.w3.org/2000/svg" xmlns:xlink="http://www.w3.org/1999/xlink">
<g id="graph0" class="graph" transform="scale(1 1) rotate(0) translate(4 1258.79)">
<title>illumination_to_implementation</title>
<polygon fill="white" stroke="none" points="-4,4 -4,-1258.79 844.46,-1258.79 844.46,4 -4,4"/>
<!-- start -->
<g id="node1" class="node">
<title>start</title>
<polygon fill="none" stroke="black" points="347.52,-1254.79 308.4,-1236.79 347.52,-1218.79 386.64,-1236.79 347.52,-1254.79"/>
<polyline fill="none" stroke="black" points="319.3,-1241.81 319.3,-1231.78"/>
<polyline fill="none" stroke="black" points="336.62,-1223.81 358.42,-1223.81"/>
<polyline fill="none" stroke="black" points="375.74,-1231.78 375.74,-1241.81"/>
<polyline fill="none" stroke="black" points="358.42,-1249.78 336.62,-1249.78"/>
<text xml:space="preserve" text-anchor="middle" x="347.52" y="-1232.59" font-family="Times,serif" font-size="14.00">start</text>
</g>
<!-- verifier -->
<g id="node2" class="node">
<title>verifier</title>
<ellipse fill="none" stroke="black" cx="347.52" cy="-1140.5" rx="347.52" ry="41.3"/>
<text xml:space="preserve" text-anchor="middle" x="347.52" y="-1153.1" font-family="Times,serif" font-size="14.00">verifier</text>
<text xml:space="preserve" text-anchor="middle" x="347.52" y="-1136.3" font-family="Times,serif" font-size="14.00">in: illuminations_dir, illumination_path, refinements, run_id</text>
<text xml:space="preserve" text-anchor="middle" x="347.52" y="-1119.5" font-family="Times,serif" font-size="14.00">out: preferred_label, illumination_path, summary, explanation, archive_reason_short</text>
</g>
<!-- start&#45;&gt;verifier -->
<g id="edge1" class="edge">
<title>start&#45;&gt;verifier</title>
<path fill="none" stroke="black" d="M347.52,-1218.5C347.52,-1211.32 347.52,-1202.57 347.52,-1193.58"/>
<polygon fill="black" stroke="black" points="351.02,-1193.68 347.52,-1183.68 344.02,-1193.68 351.02,-1193.68"/>
</g>
<!-- remove_gate -->
<g id="node3" class="node">
<title>remove_gate</title>
<polygon fill="none" stroke="black" points="326.85,-948.37 291.68,-966.37 221.36,-966.37 186.19,-948.37 221.36,-930.37 291.68,-930.37 326.85,-948.37"/>
<text xml:space="preserve" text-anchor="middle" x="256.52" y="-944.17" font-family="Times,serif" font-size="14.00">remove_gate</text>
</g>
<!-- verifier&#45;&gt;remove_gate -->
<g id="edge2" class="edge">
<title>verifier&#45;&gt;remove_gate</title>
<path fill="none" stroke="black" d="M316.71,-1099.07C308.8,-1087.55 300.77,-1074.72 294.52,-1062.2 280.78,-1034.67 270.17,-1001.01 263.7,-977.65"/>
<polygon fill="black" stroke="black" points="267.14,-976.99 261.17,-968.24 260.38,-978.81 267.14,-976.99"/>
</g>
<!-- explainer -->
<g id="node6" class="node">
<title>explainer</title>
<ellipse fill="none" stroke="black" cx="399.52" cy="-1032.79" rx="96.25" ry="29.42"/>
<text xml:space="preserve" text-anchor="middle" x="399.52" y="-1036.99" font-family="Times,serif" font-size="14.00">explainer</text>
<text xml:space="preserve" text-anchor="middle" x="399.52" y="-1020.19" font-family="Times,serif" font-size="14.00">out: explainer_render</text>
</g>
<!-- verifier&#45;&gt;explainer -->
<g id="edge3" class="edge">
<title>verifier&#45;&gt;explainer</title>
<path fill="none" stroke="black" d="M367.48,-1098.93C371.75,-1090.24 376.26,-1081.07 380.5,-1072.45"/>
<polygon fill="black" stroke="black" points="383.56,-1074.16 384.84,-1063.64 377.28,-1071.07 383.56,-1074.16"/>
</g>
<!-- done -->
<g id="node18" class="node">
<title>done</title>
<polygon fill="none" stroke="black" points="204.13,-43.21 160.91,-43.21 160.91,0 204.13,0 204.13,-43.21"/>
<polyline fill="none" stroke="black" points="172.91,-43.21 160.91,-31.21"/>
<polyline fill="none" stroke="black" points="160.91,-12 172.91,0"/>
<polyline fill="none" stroke="black" points="192.13,0 204.13,-12"/>
<polyline fill="none" stroke="black" points="204.13,-31.21 192.13,-43.21"/>
<text xml:space="preserve" text-anchor="middle" x="182.52" y="-17.41" font-family="Times,serif" font-size="14.00">done</text>
</g>
<!-- verifier&#45;&gt;done -->
<g id="edge4" class="edge">
<title>verifier&#45;&gt;done</title>
<path fill="none" stroke="black" d="M155.22,-1105.78C127.17,-1090.06 107.52,-1067.14 107.52,-1033.79 107.52,-1033.79 107.52,-1033.79 107.52,-108.63 107.52,-80.45 130.67,-57.03 151.24,-41.78"/>
<polygon fill="black" stroke="black" points="152.99,-44.83 159.18,-36.23 148.98,-39.09 152.99,-44.83"/>
</g>
<!-- mark_archived -->
<g id="node4" class="node">
<title>mark_archived</title>
<ellipse fill="none" stroke="black" cx="250.52" cy="-848.15" rx="68.95" ry="18"/>
<text xml:space="preserve" text-anchor="middle" x="250.52" y="-843.95" font-family="Times,serif" font-size="14.00">mark_archived</text>
</g>
<!-- remove_gate&#45;&gt;mark_archived -->
<g id="edge5" class="edge">
<title>remove_gate&#45;&gt;mark_archived</title>
<path fill="none" stroke="black" d="M255.47,-930.26C254.59,-915.7 253.29,-894.5 252.25,-877.43"/>
<polygon fill="black" stroke="black" points="255.77,-877.67 251.67,-867.91 248.78,-878.1 255.77,-877.67"/>
<text xml:space="preserve" text-anchor="middle" x="276.78" y="-899.77" font-family="Times,serif" font-size="14.00">Archive</text>
</g>
<!-- chat_session -->
<g id="node8" class="node">
<title>chat_session</title>
<ellipse fill="none" stroke="black" cx="607.52" cy="-848.15" rx="59.85" ry="18"/>
<text xml:space="preserve" text-anchor="middle" x="607.52" y="-843.95" font-family="Times,serif" font-size="14.00">chat_session</text>
</g>
<!-- remove_gate&#45;&gt;chat_session -->
<g id="edge7" class="edge">
<title>remove_gate&#45;&gt;chat_session</title>
<path fill="none" stroke="black" d="M305.76,-937.29C318.37,-934.87 331.92,-932.39 344.52,-930.37 406.46,-920.42 424.63,-931.04 484.52,-912.37 500.07,-907.53 502.6,-903.02 517.08,-895.57 533.81,-886.96 552.3,-877.47 568.17,-869.32"/>
<polygon fill="black" stroke="black" points="569.54,-872.56 576.84,-864.88 566.34,-866.33 569.54,-872.56"/>
<text xml:space="preserve" text-anchor="middle" x="530.3" y="-899.77" font-family="Times,serif" font-size="14.00">Chat</text>
</g>
<!-- remove_gate&#45;&gt;done -->
<g id="edge6" class="edge">
<title>remove_gate&#45;&gt;done</title>
<path fill="none" stroke="black" d="M219.92,-930.83C190.31,-914.66 153.52,-886.96 153.52,-849.15 153.52,-849.15 153.52,-849.15 153.52,-108.63 153.52,-89.81 159.83,-69.82 166.57,-53.86"/>
<polygon fill="black" stroke="black" points="169.69,-55.45 170.6,-44.89 163.31,-52.57 169.69,-55.45"/>
<text xml:space="preserve" text-anchor="middle" x="168.29" y="-501.91" font-family="Times,serif" font-size="14.00">Keep</text>
</g>
<!-- mark_archived&#45;&gt;done -->
<g id="edge14" class="edge">
<title>mark_archived&#45;&gt;done</title>
<path fill="none" stroke="black" d="M238.61,-830.05C227.14,-811.89 211.52,-781.9 211.52,-753.32 211.52,-753.32 211.52,-753.32 211.52,-108.63 211.52,-89.81 205.21,-69.82 198.47,-53.86"/>
<polygon fill="black" stroke="black" points="201.73,-52.57 194.44,-44.89 195.35,-55.45 201.73,-52.57"/>
</g>
<!-- mark_dispatched -->
<g id="node5" class="node">
<title>mark_dispatched</title>
<ellipse fill="none" stroke="black" cx="433.52" cy="-667.91" rx="77" ry="18"/>
<text xml:space="preserve" text-anchor="middle" x="433.52" y="-663.71" font-family="Times,serif" font-size="14.00">mark_dispatched</text>
</g>
<!-- implement -->
<g id="node12" class="node">
<title>implement</title>
<ellipse fill="none" stroke="black" cx="433.52" cy="-594.91" rx="52.34" ry="18"/>
<text xml:space="preserve" text-anchor="middle" x="433.52" y="-590.71" font-family="Times,serif" font-size="14.00">implement</text>
</g>
<!-- mark_dispatched&#45;&gt;implement -->
<g id="edge17" class="edge">
<title>mark_dispatched&#45;&gt;implement</title>
<path fill="none" stroke="black" d="M433.52,-649.72C433.52,-642.13 433.52,-633.01 433.52,-624.45"/>
<polygon fill="black" stroke="black" points="437.02,-624.45 433.52,-614.45 430.02,-624.45 437.02,-624.45"/>
</g>
<!-- approval_gate -->
<g id="node7" class="node">
<title>approval_gate</title>
<polygon fill="none" stroke="black" points="505.42,-948.37 467.47,-966.37 391.57,-966.37 353.62,-948.37 391.57,-930.37 467.47,-930.37 505.42,-948.37"/>
<text xml:space="preserve" text-anchor="middle" x="429.52" y="-944.17" font-family="Times,serif" font-size="14.00">approval_gate</text>
</g>
<!-- explainer&#45;&gt;approval_gate -->
<g id="edge8" class="edge">
<title>explainer&#45;&gt;approval_gate</title>
<path fill="none" stroke="black" d="M409.84,-1003.42C412.92,-994.97 416.29,-985.72 419.35,-977.3"/>
<polygon fill="black" stroke="black" points="422.64,-978.49 422.77,-967.9 416.06,-976.1 422.64,-978.49"/>
</g>
<!-- approval_gate&#45;&gt;mark_archived -->
<g id="edge9" class="edge">
<title>approval_gate&#45;&gt;mark_archived</title>
<path fill="none" stroke="black" d="M397.93,-930.04C367.59,-913.39 321.69,-888.21 289.18,-870.37"/>
<polygon fill="black" stroke="black" points="290.91,-867.33 280.46,-865.58 287.55,-873.46 290.91,-867.33"/>
<text xml:space="preserve" text-anchor="middle" x="383.08" y="-899.77" font-family="Times,serif" font-size="14.00">Decline</text>
</g>
<!-- approval_gate&#45;&gt;chat_session -->
<g id="edge11" class="edge">
<title>approval_gate&#45;&gt;chat_session</title>
<path fill="none" stroke="black" d="M483.69,-937.6C504.66,-932.24 528.21,-924.21 547.52,-912.37 563.3,-902.7 577.7,-887.84 588.43,-874.95"/>
<polygon fill="black" stroke="black" points="591.11,-877.2 594.62,-867.21 585.64,-872.83 591.11,-877.2"/>
<text xml:space="preserve" text-anchor="middle" x="581.44" y="-899.77" font-family="Times,serif" font-size="14.00">Chat</text>
</g>
<!-- design_writer -->
<g id="node10" class="node">
<title>design_writer</title>
<ellipse fill="none" stroke="black" cx="433.52" cy="-848.15" rx="96.27" ry="29.42"/>
<text xml:space="preserve" text-anchor="middle" x="433.52" y="-852.35" font-family="Times,serif" font-size="14.00">design_writer</text>
<text xml:space="preserve" text-anchor="middle" x="433.52" y="-835.55" font-family="Times,serif" font-size="14.00">out: design_doc_path</text>
</g>
<!-- approval_gate&#45;&gt;design_writer -->
<g id="edge10" class="edge">
<title>approval_gate&#45;&gt;design_writer</title>
<path fill="none" stroke="black" d="M430.22,-930.26C430.68,-918.9 431.31,-903.49 431.89,-889.15"/>
<polygon fill="black" stroke="black" points="435.37,-889.63 432.28,-879.5 428.38,-889.35 435.37,-889.63"/>
<text xml:space="preserve" text-anchor="middle" x="456.01" y="-899.77" font-family="Times,serif" font-size="14.00">Approve</text>
</g>
<!-- chat_summarizer -->
<g id="node9" class="node">
<title>chat_summarizer</title>
<ellipse fill="none" stroke="black" cx="665.52" cy="-752.32" rx="141.34" ry="29.42"/>
<text xml:space="preserve" text-anchor="middle" x="665.52" y="-756.52" font-family="Times,serif" font-size="14.00">chat_summarizer</text>
<text xml:space="preserve" text-anchor="middle" x="665.52" y="-739.72" font-family="Times,serif" font-size="14.00">out: refinements, scope_changed</text>
</g>
<!-- chat_session&#45;&gt;chat_summarizer -->
<g id="edge12" class="edge">
<title>chat_session&#45;&gt;chat_summarizer</title>
<path fill="none" stroke="black" d="M618.16,-829.94C624.84,-819.13 633.74,-804.74 642.01,-791.35"/>
<polygon fill="black" stroke="black" points="644.81,-793.48 647.09,-783.13 638.86,-789.8 644.81,-793.48"/>
</g>
<!-- chat_summarizer&#45;&gt;verifier -->
<g id="edge13" class="edge">
<title>chat_summarizer&#45;&gt;verifier</title>
<path fill="none" stroke="black" d="M679.64,-781.74C687.42,-799.97 695.52,-824.41 695.52,-847.15 695.52,-1033.79 695.52,-1033.79 695.52,-1033.79 695.52,-1065.71 641.22,-1088.91 575.52,-1105.29"/>
<polygon fill="black" stroke="black" points="574.82,-1101.86 565.92,-1107.61 576.46,-1108.67 574.82,-1101.86"/>
<text xml:space="preserve" text-anchor="middle" x="728.56" y="-944.17" font-family="Times,serif" font-size="14.00">refinements</text>
</g>
<!-- plan_writer -->
<g id="node11" class="node">
<title>plan_writer</title>
<ellipse fill="none" stroke="black" cx="433.52" cy="-752.32" rx="68.23" ry="29.42"/>
<text xml:space="preserve" text-anchor="middle" x="433.52" y="-756.52" font-family="Times,serif" font-size="14.00">plan_writer</text>
<text xml:space="preserve" text-anchor="middle" x="433.52" y="-739.72" font-family="Times,serif" font-size="14.00">out: plan_path</text>
</g>
<!-- design_writer&#45;&gt;plan_writer -->
<g id="edge15" class="edge">
<title>design_writer&#45;&gt;plan_writer</title>
<path fill="none" stroke="black" d="M433.52,-818.49C433.52,-810.56 433.52,-801.81 433.52,-793.36"/>
<polygon fill="black" stroke="black" points="437.02,-793.65 433.52,-783.65 430.02,-793.65 437.02,-793.65"/>
</g>
<!-- plan_writer&#45;&gt;mark_dispatched -->
<g id="edge16" class="edge">
<title>plan_writer&#45;&gt;mark_dispatched</title>
<path fill="none" stroke="black" d="M433.52,-722.5C433.52,-714.48 433.52,-705.78 433.52,-697.76"/>
<polygon fill="black" stroke="black" points="437.02,-697.82 433.52,-687.82 430.02,-697.82 437.02,-697.82"/>
</g>
<!-- implement&#45;&gt;implement -->
<g id="edge18" class="edge">
<title>implement&#45;&gt;implement</title>
<path fill="none" stroke="black" d="M482.5,-601.66C494.72,-601.19 503.86,-598.94 503.86,-594.91 503.86,-592.26 499.92,-590.39 493.76,-589.27"/>
<polygon fill="black" stroke="black" points="494.3,-585.81 484,-588.31 493.61,-592.78 494.3,-585.81"/>
</g>
<!-- review_gate -->
<g id="node13" class="node">
<title>review_gate</title>
<polygon fill="none" stroke="black" points="500.75,-506.11 467.13,-524.11 399.9,-524.11 366.29,-506.11 399.9,-488.11 467.13,-488.11 500.75,-506.11"/>
<text xml:space="preserve" text-anchor="middle" x="433.52" y="-501.91" font-family="Times,serif" font-size="14.00">review_gate</text>
</g>
<!-- implement&#45;&gt;review_gate -->
<g id="edge19" class="edge">
<title>implement&#45;&gt;review_gate</title>
<path fill="none" stroke="black" d="M431.73,-576.48C431.23,-570.88 430.76,-564.64 430.52,-558.91 430.2,-551.45 430.2,-549.57 430.52,-542.11 430.61,-540.05 430.72,-537.92 430.86,-535.79"/>
<polygon fill="black" stroke="black" points="434.33,-536.28 431.61,-526.04 427.35,-535.75 434.33,-536.28"/>
</g>
<!-- review_gate&#45;&gt;implement -->
<g id="edge22" class="edge">
<title>review_gate&#45;&gt;implement</title>
<path fill="none" stroke="black" d="M433.52,-524.52C433.52,-536.27 433.52,-552.05 433.52,-565.59"/>
<polygon fill="black" stroke="black" points="430.02,-565.25 433.52,-575.25 437.02,-565.25 430.02,-565.25"/>
<text xml:space="preserve" text-anchor="middle" x="449.07" y="-546.31" font-family="Times,serif" font-size="14.00">Retry</text>
</g>
<!-- tmux_tester -->
<g id="node14" class="node">
<title>tmux_tester</title>
<ellipse fill="none" stroke="black" cx="604.52" cy="-405.89" rx="235.94" ry="29.42"/>
<text xml:space="preserve" text-anchor="middle" x="604.52" y="-410.09" font-family="Times,serif" font-size="14.00">tmux_tester</text>
<text xml:space="preserve" text-anchor="middle" x="604.52" y="-393.29" font-family="Times,serif" font-size="14.00">out: test_result, test_summary, issues_found, test_render</text>
</g>
<!-- review_gate&#45;&gt;tmux_tester -->
<g id="edge21" class="edge">
<title>review_gate&#45;&gt;tmux_tester</title>
<path fill="none" stroke="black" d="M463.7,-487.77C486.33,-474.78 518.02,-456.58 545.61,-440.73"/>
<polygon fill="black" stroke="black" points="547.32,-443.78 554.25,-435.77 543.83,-437.71 547.32,-443.78"/>
<text xml:space="preserve" text-anchor="middle" x="535.74" y="-457.51" font-family="Times,serif" font-size="14.00">Tmux</text>
</g>
<!-- memory_writer -->
<g id="node16" class="node">
<title>memory_writer</title>
<ellipse fill="none" stroke="black" cx="382.52" cy="-205.46" rx="84.17" ry="29.42"/>
<text xml:space="preserve" text-anchor="middle" x="382.52" y="-209.66" font-family="Times,serif" font-size="14.00">memory_writer</text>
<text xml:space="preserve" text-anchor="middle" x="382.52" y="-192.86" font-family="Times,serif" font-size="14.00">out: memory_path</text>
</g>
<!-- review_gate&#45;&gt;memory_writer -->
<g id="edge20" class="edge">
<title>review_gate&#45;&gt;memory_writer</title>
<path fill="none" stroke="black" d="M405.88,-487.74C389.03,-475.41 368.96,-457.2 359.52,-435.31 332.65,-373.02 351.57,-292.63 367.34,-245.58"/>
<polygon fill="black" stroke="black" points="370.56,-246.96 370.55,-236.37 363.95,-244.66 370.56,-246.96"/>
<text xml:space="preserve" text-anchor="middle" x="371.29" y="-345.88" font-family="Times,serif" font-size="14.00">Approve</text>
</g>
<!-- tmux_confirm_gate -->
<g id="node15" class="node">
<title>tmux_confirm_gate</title>
<polygon fill="none" stroke="black" points="672.21,-305.68 621.86,-323.68 521.18,-323.68 470.83,-305.68 521.18,-287.68 621.86,-287.68 672.21,-305.68"/>
<text xml:space="preserve" text-anchor="middle" x="571.52" y="-301.48" font-family="Times,serif" font-size="14.00">tmux_confirm_gate</text>
</g>
<!-- tmux_tester&#45;&gt;tmux_confirm_gate -->
<g id="edge23" class="edge">
<title>tmux_tester&#45;&gt;tmux_confirm_gate</title>
<path fill="none" stroke="black" d="M592.1,-376.13C589.78,-370.34 587.47,-364.25 585.52,-358.48 582.98,-350.98 580.59,-342.75 578.52,-335.1"/>
<polygon fill="black" stroke="black" points="581.94,-334.36 576.03,-325.57 575.17,-336.13 581.94,-334.36"/>
</g>
<!-- tmux_confirm_gate&#45;&gt;tmux_tester -->
<g id="edge25" class="edge">
<title>tmux_confirm_gate&#45;&gt;tmux_tester</title>
<path fill="none" stroke="black" d="M577.38,-324.12C581.25,-335.63 586.47,-351.16 591.3,-365.54"/>
<polygon fill="black" stroke="black" points="587.9,-366.42 594.4,-374.79 594.54,-364.19 587.9,-366.42"/>
<text xml:space="preserve" text-anchor="middle" x="603.57" y="-345.88" font-family="Times,serif" font-size="14.00">Retry</text>
</g>
<!-- tmux_confirm_gate&#45;&gt;memory_writer -->
<g id="edge24" class="edge">
<title>tmux_confirm_gate&#45;&gt;memory_writer</title>
<path fill="none" stroke="black" d="M538.17,-287.34C510.6,-273.02 470.88,-252.38 438.46,-235.53"/>
<polygon fill="black" stroke="black" points="440.49,-232.64 430,-231.13 437.26,-238.85 440.49,-232.64"/>
<text xml:space="preserve" text-anchor="middle" x="522.45" y="-257.08" font-family="Times,serif" font-size="14.00">Commit</text>
</g>
<!-- memory_reflector -->
<g id="node17" class="node">
<title>memory_reflector</title>
<ellipse fill="none" stroke="black" cx="382.52" cy="-109.63" rx="143.01" ry="29.42"/>
<text xml:space="preserve" text-anchor="middle" x="382.52" y="-113.83" font-family="Times,serif" font-size="14.00">memory_reflector</text>
<text xml:space="preserve" text-anchor="middle" x="382.52" y="-97.03" font-family="Times,serif" font-size="14.00">out: illumination_path, reasoning</text>
</g>
<!-- memory_writer&#45;&gt;memory_reflector -->
<g id="edge26" class="edge">
<title>memory_writer&#45;&gt;memory_reflector</title>
<path fill="none" stroke="black" d="M382.52,-175.8C382.52,-167.87 382.52,-159.12 382.52,-150.67"/>
<polygon fill="black" stroke="black" points="386.02,-150.95 382.52,-140.95 379.02,-150.95 386.02,-150.95"/>
</g>
<!-- memory_reflector&#45;&gt;done -->
<g id="edge27" class="edge">
<title>memory_reflector&#45;&gt;done</title>
<path fill="none" stroke="black" d="M321.97,-82.59C286.7,-67.41 243.62,-48.89 214.76,-36.48"/>
<polygon fill="black" stroke="black" points="216.41,-33.37 205.84,-32.64 213.64,-39.8 216.41,-33.37"/>
</g>
</g>
</svg>
